<?xml version="1.0" encoding="UTF-8" standalone="no"?>
<svg width="33px" height="26px" viewBox="0 0 33 26" version="1.1" xmlns="http://www.w3.org/2000/svg" xmlns:xlink="http://www.w3.org/1999/xlink">
    <!-- Generator: Sketch 44.1 (41455) - http://www.bohemiancoding.com/sketch -->
    <title>Group 3</title>
    <desc>Created with Sketch.</desc>
    <defs></defs>
    <g id="Symbols" stroke="none" stroke-width="1" fill="none" fill-rule="evenodd">
        <g id="tickets/missed-body-mob" transform="translate(-133.000000, -16.000000)">
            <g id="tickets/missed-body-copy-3">
                <g id="Group-Copy">
                    <g id="rout">
                        <g id="Group-3" transform="translate(132.000000, 10.459459)">
                            <g id="arrow" transform="translate(18.689616, 11.761232) rotate(-1.000000) translate(-18.689616, -11.761232) translate(3.189616, 1.256727)" stroke-linecap="round" stroke="#FFFFFF">
                                <g id="Group" transform="translate(-0.666667, 4.774775)">
                                    <path d="M0.164855751,5.25225225 L31.1212565,5.72972973" id="Line-Copy" stroke-dasharray="1,2"></path>
                                    <path d="M24.6882071,0.227172852 L31.0760522,6.04923985" id="Path-3" stroke-linejoin="round"></path>
                                    <path d="M24.5877709,11.472077 L31.0760522,5.47414371" id="Path-3-Copy" stroke-linejoin="round"></path>
                                </g>
                            </g>
                            <g id="arrow-copy" transform="translate(17.193156, 24.909633) scale(-1, 1) rotate(-1.000000) translate(-17.193156, -24.909633) translate(0.193156, 18.409633)" fill-rule="nonzero" fill="#FFFFFF">
                                <g id="Group" transform="translate(0.333333, 0.000000)">
                                    <path d="M1.15714457,6.75219279 L2.15702564,6.76761514 C2.43313517,6.77187391 2.66041859,6.55149532 2.66467735,6.27538579 C2.66893612,5.99927626 2.44855753,5.77199284 2.172448,5.76773408 L1.17256693,5.75231172 C0.896457397,5.74805295 0.669173983,5.96843154 0.664915216,6.24454107 C0.66065645,6.52065061 0.881035039,6.74793402 1.15714457,6.75219279 Z M4.15678778,6.79845986 L5.15666885,6.81388222 C5.43277838,6.81814098 5.66006179,6.5977624 5.66432056,6.32165286 C5.66857932,6.04554333 5.44820074,5.81825992 5.1720912,5.81400115 L4.17221013,5.79857879 C3.8961006,5.79432003 3.66881719,6.01469861 3.66455842,6.29080815 C3.66029966,6.56691768 3.88067824,6.79420109 4.15678778,6.79845986 Z M7.15643098,6.84472693 L8.15631205,6.86014929 C8.43242158,6.86440806 8.659705,6.64402947 8.66396376,6.36791994 C8.66822253,6.0918104 8.44784394,5.86452699 8.17173441,5.86026822 L7.17185334,5.84484587 C6.89574381,5.8405871 6.66846039,6.06096569 6.66420163,6.33707522 C6.65994286,6.61318475 6.88032145,6.84046817 7.15643098,6.84472693 Z M10.1560742,6.89099401 L11.1559553,6.90641636 C11.4320648,6.91067513 11.6593482,6.69029654 11.663607,6.41418701 C11.6678657,6.13807748 11.4474871,5.91079406 11.1713776,5.9065353 L10.1714965,5.89111294 C9.89538701,5.88685417 9.6681036,6.10723276 9.66384483,6.38334229 C9.65958607,6.65945183 9.87996465,6.88673524 10.1560742,6.89099401 Z M13.1557174,6.93726108 L14.1555985,6.95268344 C14.431708,6.95694221 14.6589914,6.73656362 14.6632502,6.46045408 C14.6675089,6.18434455 14.4471304,5.95706114 14.1710208,5.95280237 L13.1711397,5.93738001 C12.8950302,5.93312125 12.6677468,6.15349983 12.663488,6.42960937 C12.6592293,6.7057189 12.8796079,6.93300231 13.1557174,6.93726108 Z M16.1553606,6.98352815 L17.1552417,6.99895051 C17.4313512,7.00320928 17.6586346,6.78283069 17.6628934,6.50672116 C17.6671521,6.23061162 17.4467736,6.00332821 17.170664,5.99906944 L16.170783,5.98364709 C15.8946734,5.97938832 15.66739,6.19976691 15.6631312,6.47587644 C15.6588725,6.75198597 15.8792511,6.97926939 16.1553606,6.98352815 Z M19.1550038,7.02979523 L20.1548849,7.04521759 C20.4309944,7.04947635 20.6582778,6.82909776 20.6625366,6.55298823 C20.6667954,6.2768787 20.4464168,6.04959528 20.1703072,6.04533652 L19.1704262,6.02991416 C18.8943166,6.02565539 18.6670332,6.24603398 18.6627744,6.52214351 C18.6585157,6.79825305 18.8788943,7.02553646 19.1550038,7.02979523 Z M22.154647,7.0760623 L23.1545281,7.09148466 C23.4306376,7.09574343 23.657921,6.87536484 23.6621798,6.5992553 C23.6664386,6.32314577 23.44606,6.09586236 23.1699504,6.09160359 L22.1700694,6.07618123 C21.8939598,6.07192247 21.6666764,6.29230106 21.6624177,6.56841059 C21.6581589,6.84452012 21.8785375,7.07180353 22.154647,7.0760623 Z M25.1542902,7.12232937 L26.1541713,7.13775173 C26.4302808,7.1420105 26.6575642,6.92163191 26.661823,6.64552238 C26.6660818,6.36941284 26.4457032,6.14212943 26.1695936,6.13787066 L25.1697126,6.12244831 C24.893603,6.11818954 24.6663196,6.33856813 24.6620609,6.61467766 C24.6578021,6.89078719 24.8781807,7.11807061 25.1542902,7.12232937 Z M28.1539334,7.16859645 L29.1538145,7.18401881 C29.429924,7.18827757 29.6572074,6.96789898 29.6614662,6.69178945 C29.665725,6.41567992 29.4453464,6.1883965 29.1692368,6.18413774 L28.1693558,6.16871538 C27.8932462,6.16445661 27.6659628,6.3848352 27.6617041,6.66094474 C27.6574453,6.93705427 27.8778239,7.16433768 28.1539334,7.16859645 Z M31.1535766,7.21486352 L32.1135453,7.22967026 C32.3896549,7.23392903 32.6169383,7.01355044 32.621197,6.73744091 C32.6254558,6.46133138 32.4050772,6.23404796 32.1289677,6.2297892 L31.168999,6.21498245 C30.8928894,6.21072369 30.665606,6.43110228 30.6613473,6.70721181 C30.6570885,6.98332134 30.8774671,7.21060476 31.1535766,7.21486352 Z" id="Line-Copy"></path>
                                    <path d="M25.3513979,1.59671254 L31.739243,7.41877954 C31.9433341,7.60479411 32.2595773,7.59014016 32.4455919,7.38604903 C32.6316064,7.18195789 32.6169525,6.86571473 32.4128614,6.67970016 L26.0250163,0.857633164 C25.8209251,0.671618594 25.504682,0.686272544 25.3186674,0.890363678 C25.1326528,1.09445481 25.1473068,1.41069797 25.3513979,1.59671254 Z" id="Path-3"></path>
                                    <path d="M25.9271783,12.8392319 L32.4154595,6.84129854 C32.6182335,6.65384905 32.6306565,6.3375104 32.443207,6.13473639 C32.2557575,5.93196237 31.9394189,5.91953939 31.7366449,6.10698888 L25.2483636,12.1049222 C25.0455896,12.2923717 25.0331666,12.6087104 25.2206161,12.8114844 C25.4080656,13.0142584 25.7244042,13.0266814 25.9271783,12.8392319 Z" id="Path-3-Copy"></path>
                                </g>
                            </g>
                        </g>
                    </g>
                </g>
            </g>
        </g>
    </g>
</svg>