<svg xmlns="http://www.w3.org/2000/svg" viewBox="0 0 166 33.27"><defs><style>.cls-1{fill:#b0a2d7;}</style></defs><title>Asset 14</title><g id="Layer_2" data-name="Layer 2"><g id="Layer_1-2" data-name="Layer 1"><path class="cls-1" d="M90.88,14.63l-5.59,1.86L78.82,13.9l-.68.73L80.9,18l-5.65,2c-.51.17,3.3.71,4.17.57,0,0,6.71-2.19,9.68-3.18l2.29-.76c.51-.17,1.55-1,1.4-1.54S91.39,14.46,90.88,14.63Z"/><polygon class="cls-1" points="73.68 18.02 75.06 19.63 77.05 18.93 74.2 17.55 73.68 18.02"/><path class="cls-1" d="M47.91,25.75h-2a.5.5,0,0,0,0,1h2a.5.5,0,0,0,0-1Z"/><path class="cls-1" d="M40.13,6.57h-2a.5.5,0,0,0,0,1h2a.5.5,0,0,0,0-1Z"/><path class="cls-1" d="M43.91,25.75h-2a.5.5,0,0,0,0,1h2a.5.5,0,0,0,0-1Z"/><path class="cls-1" d="M44.13,6.57h-2a.5.5,0,0,0,0,1h2a.5.5,0,0,0,0-1Z"/><path class="cls-1" d="M36.13,6.57h-2a.5.5,0,0,0,0,1h2a.5.5,0,0,0,0-1Z"/><path class="cls-1" d="M39.91,25.75h-2a.5.5,0,0,0,0,1h2a.5.5,0,0,0,0-1Z"/><path class="cls-1" d="M29.91,25.75a.5.5,0,1,0,0,1h2a.5.5,0,0,0,0-1Z"/><path class="cls-1" d="M24.13,6.57h-2a.5.5,0,0,0,0,1h2a.5.5,0,0,0,0-1Z"/><path class="cls-1" d="M23.91,25.75h-2a.5.5,0,1,0,0,1h2a.5.5,0,0,0,0-1Z"/><path class="cls-1" d="M35.91,25.75h-2a.5.5,0,0,0,0,1h2a.5.5,0,0,0,0-1Z"/><path class="cls-1" d="M48.13,6.57h-2a.5.5,0,0,0,0,1h2a.5.5,0,0,0,0-1Z"/><path class="cls-1" d="M71.91,25.75h-2a.5.5,0,0,0,0,1h2a.5.5,0,0,0,0-1Z"/><path class="cls-1" d="M63.91,25.75h-2a.5.5,0,0,0,0,1h2a.5.5,0,0,0,0-1Z"/><path class="cls-1" d="M51.91,25.75h-2a.5.5,0,0,0,0,1h2a.5.5,0,0,0,0-1Z"/><path class="cls-1" d="M68.13,6.57h-2a.5.5,0,0,0,0,1h2a.5.5,0,0,0,0-1Z"/><path class="cls-1" d="M67.91,25.75h-2a.5.5,0,0,0,0,1h2a.5.5,0,0,0,0-1Z"/><path class="cls-1" d="M64.13,6.57h-2a.5.5,0,0,0,0,1h2a.5.5,0,0,0,0-1Z"/><path class="cls-1" d="M59.91,25.75h-2a.5.5,0,0,0,0,1h2a.5.5,0,0,0,0-1Z"/><path class="cls-1" d="M52.13,6.57h-2a.5.5,0,0,0,0,1h2a.5.5,0,0,0,0-1Z"/><path class="cls-1" d="M55.91,25.75h-2a.5.5,0,0,0,0,1h2a.5.5,0,0,0,0-1Z"/><path class="cls-1" d="M56.13,6.57h-2a.5.5,0,0,0,0,1h2a.5.5,0,0,0,0-1Z"/><path class="cls-1" d="M60.13,6.57h-2a.5.5,0,0,0,0,1h2a.5.5,0,0,0,0-1Z"/><path class="cls-1" d="M74.13,7.57h2a.5.5,0,0,0,0-1h-2a.5.5,0,0,0,0,1Z"/><path class="cls-1" d="M30.13,7.57h2a.5.5,0,0,0,0-1h-2a.5.5,0,1,0,0,1Z"/><path class="cls-1" d="M78.13,7.57h2a.5.5,0,0,0,0-1h-2a.5.5,0,0,0,0,1Z"/><path class="cls-1" d="M.59,18A.5.5,0,0,0,1,17.5c0-.28,0-.56,0-.84a9.1,9.1,0,0,1,.06-1,.5.5,0,0,0-.44-.55.51.51,0,0,0-.55.44A10.3,10.3,0,0,0,0,16.66c0,.31,0,.63,0,.94a.5.5,0,0,0,.5.45Z"/><path class="cls-1" d="M26.13,7.57h2a.5.5,0,0,0,0-1h-2a.5.5,0,1,0,0,1Z"/><path class="cls-1" d="M20.13,6.57h-2a.5.5,0,0,0,0,1h2a.5.5,0,0,0,0-1Z"/><path class="cls-1" d="M1.41,19.36a.5.5,0,0,0-1,.3,10.1,10.1,0,0,0,.83,1.93.5.5,0,0,0,.87-.49A9,9,0,0,1,1.41,19.36Z"/><path class="cls-1" d="M164.6,14a.5.5,0,0,0,.48.35l.15,0a.5.5,0,0,0,.33-.62,10.09,10.09,0,0,0-.82-1.93.5.5,0,1,0-.87.48A9.12,9.12,0,0,1,164.6,14Z"/><path class="cls-1" d="M86.13,7.57h2a.5.5,0,0,0,0-1h-2a.5.5,0,0,0,0,1Z"/><path class="cls-1" d="M82.13,7.57h2a.5.5,0,0,0,0-1h-2a.5.5,0,0,0,0,1Z"/><path class="cls-1" d="M90.13,7.57h2a.5.5,0,0,0,0-1h-2a.5.5,0,0,0,0,1Z"/><path class="cls-1" d="M15.91,25.75h-2a.5.5,0,1,0,0,1h2a.5.5,0,1,0,0-1Z"/><path class="cls-1" d="M12.13,6.57h-2a.5.5,0,0,0,0,1h2a.5.5,0,0,0,0-1Z"/><path class="cls-1" d="M19.91,25.75h-2a.5.5,0,1,0,0,1h2a.5.5,0,0,0,0-1Z"/><path class="cls-1" d="M16.13,6.57h-2a.5.5,0,1,0,0,1h2a.5.5,0,0,0,0-1Z"/><path class="cls-1" d="M11.91,25.75h-2a.52.52,0,0,0-.51.49.5.5,0,0,0,.49.51h2a.5.5,0,0,0,0-1Z"/><path class="cls-1" d="M8,25.52a9,9,0,0,1-1.79-.62.5.5,0,0,0-.42.91,10,10,0,0,0,2,.68h.11a.5.5,0,0,0,.11-1Z"/><path class="cls-1" d="M3.24,22.64a.5.5,0,1,0-.75.66A10.25,10.25,0,0,0,4,24.73a.49.49,0,0,0,.3.1.5.5,0,0,0,.3-.9A9.22,9.22,0,0,1,3.24,22.64Z"/><path class="cls-1" d="M4.22,8.46A10.22,10.22,0,0,0,2.65,9.85a.5.5,0,0,0,0,.71.49.49,0,0,0,.34.13.5.5,0,0,0,.37-.16A9.16,9.16,0,0,1,4.8,9.27a.5.5,0,1,0-.58-.81Z"/><path class="cls-1" d="M8,6.78a10.06,10.06,0,0,0-2,.64.5.5,0,0,0,.4.92,9,9,0,0,1,1.8-.57.5.5,0,0,0-.2-1Z"/><path class="cls-1" d="M2.08,11.36a.5.5,0,0,0-.68.18,10,10,0,0,0-.87,1.91.5.5,0,0,0,.31.63l.16,0a.5.5,0,0,0,.47-.34A9,9,0,0,1,2.26,12,.5.5,0,0,0,2.08,11.36Z"/><path class="cls-1" d="M162.59,22.83a9.08,9.08,0,0,1-1.42,1.25.5.5,0,0,0,.58.82,10.18,10.18,0,0,0,1.58-1.39.5.5,0,0,0-.73-.68Z"/><path class="cls-1" d="M72.13,6.57h-2a.5.5,0,0,0,0,1h2a.5.5,0,0,0,0-1Z"/><path class="cls-1" d="M135.91,25.75h-2a.5.5,0,0,0,0,1h2a.5.5,0,0,0,0-1Z"/><path class="cls-1" d="M139.91,25.75h-2a.5.5,0,0,0,0,1h2a.5.5,0,0,0,0-1Z"/><path class="cls-1" d="M124.13,6.57h-2a.5.5,0,0,0,0,1h2a.5.5,0,1,0,0-1Z"/><path class="cls-1" d="M143.91,25.75h-2a.5.5,0,0,0,0,1h2a.5.5,0,0,0,0-1Z"/><path class="cls-1" d="M128.13,6.57h-2a.5.5,0,0,0,0,1h2a.5.5,0,0,0,0-1Z"/><path class="cls-1" d="M127.91,25.75h-2a.5.5,0,0,0,0,1h2a.5.5,0,0,0,0-1Z"/><path class="cls-1" d="M132.13,6.57h-2a.5.5,0,0,0,0,1h2a.5.5,0,0,0,0-1Z"/><path class="cls-1" d="M147.91,25.75h-2a.5.5,0,0,0,0,1h2a.5.5,0,0,0,0-1Z"/><path class="cls-1" d="M131.91,25.75h-2a.5.5,0,0,0,0,1h2a.5.5,0,0,0,0-1Z"/><path class="cls-1" d="M144.13,6.57h-2a.5.5,0,0,0,0,1h2a.5.5,0,0,0,0-1Z"/><path class="cls-1" d="M163.54,10.05A10.29,10.29,0,0,0,162,8.62a.5.5,0,0,0-.61.8,9.17,9.17,0,0,1,1.38,1.29.5.5,0,0,0,.76-.66Z"/><path class="cls-1" d="M160.21,7.53a10.05,10.05,0,0,0-2-.69.5.5,0,0,0-.23,1,9.15,9.15,0,0,1,1.79.62.5.5,0,1,0,.43-.9Z"/><path class="cls-1" d="M165.15,19.28a.5.5,0,0,0-.63.31,9,9,0,0,1-.79,1.72.5.5,0,0,0,.86.51,10.13,10.13,0,0,0,.88-1.91A.5.5,0,0,0,165.15,19.28Z"/><path class="cls-1" d="M159.52,25a9.08,9.08,0,0,1-1.81.57.5.5,0,0,0,.1,1h.1a10.15,10.15,0,0,0,2-.63.5.5,0,0,0-.4-.92Z"/><path class="cls-1" d="M166,15.77a.49.49,0,0,0-.54-.45.5.5,0,0,0-.45.54q0,.4,0,.8a9.2,9.2,0,0,1-.06,1.09.5.5,0,0,0,.44.56h.06a.5.5,0,0,0,.5-.44,10.19,10.19,0,0,0,.07-1.21C166,16.36,166,16.06,166,15.77Z"/><path class="cls-1" d="M152.13,6.57h-2a.5.5,0,0,0,0,1h2a.5.5,0,0,0,0-1Z"/><path class="cls-1" d="M151.91,25.75h-2a.5.5,0,0,0,0,1h2a.5.5,0,0,0,0-1Z"/><path class="cls-1" d="M156.14,6.58h-2a.5.5,0,0,0,0,1h2a.5.5,0,0,0,0-1Z"/><path class="cls-1" d="M148.13,6.57h-2a.5.5,0,0,0,0,1h2a.5.5,0,0,0,0-1Z"/><path class="cls-1" d="M155.91,25.75h-2a.5.5,0,0,0,0,1h2a.5.5,0,0,0,0-1Z"/><path class="cls-1" d="M136.13,7.57a.5.5,0,0,0,0-1h-2a.5.5,0,0,0,0,1Z"/><path class="cls-1" d="M99.91,25.75h-2a.5.5,0,0,0,0,1h2a.5.5,0,0,0,0-1Z"/><path class="cls-1" d="M104.13,6.57h-2a.5.5,0,0,0,0,1h2a.5.5,0,0,0,0-1Z"/><path class="cls-1" d="M103.91,25.75h-2a.5.5,0,0,0,0,1h2a.5.5,0,1,0,0-1Z"/><path class="cls-1" d="M95.91,25.75h-2a.5.5,0,0,0,0,1h2a.5.5,0,0,0,0-1Z"/><path class="cls-1" d="M100.13,6.57h-2a.5.5,0,0,0,0,1h2a.5.5,0,0,0,0-1Z"/><path class="cls-1" d="M96.13,6.57h-2a.5.5,0,0,0,0,1h2a.5.5,0,0,0,0-1Z"/><path class="cls-1" d="M91.91,25.75h-2a.5.5,0,0,0,0,1h2a.5.5,0,0,0,0-1Z"/><path class="cls-1" d="M75.91,25.75h-2a.5.5,0,0,0,0,1h2a.5.5,0,0,0,0-1Z"/><path class="cls-1" d="M79.91,25.75h-2a.5.5,0,0,0,0,1h2a.5.5,0,0,0,0-1Z"/><path class="cls-1" d="M123.91,25.75h-2a.5.5,0,0,0,0,1h2a.5.5,0,1,0,0-1Z"/><path class="cls-1" d="M87.91,25.75h-2a.5.5,0,0,0,0,1h2a.5.5,0,0,0,0-1Z"/><path class="cls-1" d="M83.91,25.75h-2a.5.5,0,0,0,0,1h2a.5.5,0,0,0,0-1Z"/><path class="cls-1" d="M120.13,6.57h-2a.5.5,0,0,0,0,1h2a.5.5,0,0,0,0-1Z"/><path class="cls-1" d="M115.91,25.75h-2a.5.5,0,0,0,0,1h2a.5.5,0,1,0,0-1Z"/><path class="cls-1" d="M116.13,6.57h-2a.5.5,0,0,0,0,1h2a.5.5,0,0,0,0-1Z"/><path class="cls-1" d="M107.91,25.75h-2a.5.5,0,0,0,0,1h2a.5.5,0,1,0,0-1Z"/><path class="cls-1" d="M119.91,25.75h-2a.5.5,0,0,0,0,1h2a.5.5,0,1,0,0-1Z"/><path class="cls-1" d="M112.13,6.57h-2a.5.5,0,0,0,0,1h2a.5.5,0,0,0,0-1Z"/><path class="cls-1" d="M111.91,25.75h-2a.5.5,0,0,0,0,1h2a.5.5,0,1,0,0-1Z"/><path class="cls-1" d="M108.13,6.57h-2a.5.5,0,0,0,0,1h2a.5.5,0,0,0,0-1Z"/><path class="cls-1" d="M140.59,6.89a.5.5,0,0,0-.28-.28L133.85.15a.5.5,0,0,0-.71.71l5.72,5.72h-.74a.5.5,0,0,0,0,1h1.15l-6,6a.5.5,0,1,0,.71.71l6.62-6.62a.5.5,0,0,0,0-.71Z"/><path class="cls-1" d="M27.43,26.75h.48a.5.5,0,0,0,0-1h-1l6-6a.5.5,0,0,0-.71-.71l-6.62,6.62a.49.49,0,0,0-.14.38.49.49,0,0,0-.06.23.5.5,0,0,0,.5.5H26l6.38,6.38a.5.5,0,0,0,.71-.71Z"/></g></g></svg>