<?xml version="1.0" encoding="UTF-8" standalone="no"?>
<svg width="167px" height="33px" viewBox="0 0 167 33" version="1.1" xmlns="http://www.w3.org/2000/svg" xmlns:xlink="http://www.w3.org/1999/xlink">
    <!-- Generator: Sketch 44.1 (41455) - http://www.bohemiancoding.com/sketch -->
    <title>Group 2</title>
    <desc>Created with Sketch.</desc>
    <defs></defs>
    <g id="Symbols" stroke="none" stroke-width="1" fill="none" fill-rule="evenodd">
        <g id="tickets/missed-body" transform="translate(-167.000000, -10.000000)">
            <g id="Group-Copy">
                <g id="rout">
                    <g id="Group-2" transform="translate(168.000000, 11.000000)">
                        <g id="airplane/vylet">
                            <g transform="translate(73.000000, 11.000000)" id="Page-1" fill="#FFFFFF">
                                <g>
                                    <path d="M0.622210526,4.4039322 L0,4.98345763 L1.65008187,6.9240678 L4.04140936,6.07498305 L0.622210526,4.4039322 Z M22.9422982,1.32420339 C22.7779357,0.720949153 21.2497135,0.669152542 20.6349006,0.875661017 C18.398924,1.62535593 16.1626784,2.37518644 13.9261637,3.12515254 L6.16346199,0 L5.34433918,0.880271186 L8.66615789,4.9019661 C6.52487135,5.64827119 2.60316959,7.02616949 1.89138012,7.26454237 C1.2785848,7.47023729 5.8512807,8.12433898 6.89959649,7.94874576 C6.89959649,7.94874576 14.9543041,5.3000678 18.515538,4.10562712 C19.4309649,3.79864407 20.3467953,3.49179661 21.2622222,3.18467797 C21.8747485,2.97925424 23.1207836,1.97871186 22.9422982,1.32420339 L22.9422982,1.32420339 Z" id="Fill-1"></path>
                                </g>
                            </g>
                            <path d="M0,15.5 C0,10.2532949 4.25506941,6 9.50617666,6 L64.660778,6 L155.492518,6 C160.743355,6 165,10.2521413 165,15.5 L165,15.5 C165,20.7467051 160.755514,25 155.506182,25 L9.49381849,25 C4.25052732,25 0,20.7478587 0,15.5 L0,15.5 Z" id="Rectangle-5" stroke="#FFFFFF" stroke-linecap="round" stroke-dasharray="1,2"></path>
                            <path d="M132,0 L138.387845,5.822067" id="Path-3" stroke="#FFFFFF" stroke-linecap="round" stroke-linejoin="round"></path>
                            <path d="M24,19 L30.3878451,24.822067" id="Path-3-Copy-2" stroke="#FFFFFF" stroke-linecap="round" stroke-linejoin="round" transform="translate(27.193923, 21.911034) scale(1, -1) translate(-27.193923, -21.911034) "></path>
                            <path d="M132,11.9979333 L138.488281,6" id="Path-3-Copy" stroke="#FFFFFF" stroke-linecap="round" stroke-linejoin="round"></path>
                            <path d="M24,30.9979333 L30.4882812,25" id="Path-3-Copy-3" stroke="#FFFFFF" stroke-linecap="round" stroke-linejoin="round" transform="translate(27.244141, 27.998967) scale(1, -1) translate(-27.244141, -27.998967) "></path>
                        </g>
                    </g>
                </g>
            </g>
        </g>
    </g>
</svg>