<svg xmlns="http://www.w3.org/2000/svg" viewBox="0 0 138.45 121"><title>Asset 3</title><g id="Layer_2" data-name="Layer 2"><g id="Layer_1-2" data-name="Layer 1"><path d="M43.75,31.08v7.58A2.36,2.36,0,0,0,46.11,41h4.38l4.32-6.56,11.11.08L60.19,54.29v.21a2.64,2.64,0,0,0,2.64,2.64h6.62L81.39,35l10.09.33a7.28,7.28,0,0,0,5.17-2.13,85.09,85.09,0,0,1,8.4,3.63l1.34-2.68a88.07,88.07,0,0,0-8.12-3.54,6.5,6.5,0,0,0,.35-2.11,6.63,6.63,0,0,0-2.12-4.87,7.31,7.31,0,0,0-5.07-2h0L81.31,22,69.45,0H62.83a2.64,2.64,0,0,0-2.63,2.64v.21l5.69,19.61-11.15.1-4.25-6.43H46.11a2.36,2.36,0,0,0-2.36,2.35V28a88.25,88.25,0,0,0-9.53,3.2l1.12,2.78A86,86,0,0,1,43.75,31.08Zm3-11.95h2.12l4.26,6.44,16.73-.14L63.36,3h4.3L79.55,25.05l11.93-.4a4.29,4.29,0,0,1,3,1.15,3.67,3.67,0,0,1,1.18,2.69,4,4,0,0,1-4.1,3.84l-11.9-.4-12,22.2H63.36l6.55-22.58L53.2,31.45,48.87,38H46.75Z"/><path d="M26.07,38.34l-1.44-2.63a88.64,88.64,0,0,0-9,5.66l1.75,2.44A85.64,85.64,0,0,1,26.07,38.34Z"/><path d="M131.74,53.27l-2.21,2a85.75,85.75,0,0,1,6.48,8l2.44-1.75A89,89,0,0,0,131.74,53.27Z"/><path d="M113.94,42a84.49,84.49,0,0,1,8.2,6.19l1.95-2.28a87.37,87.37,0,0,0-8.49-6.4Z"/><path d="M118.88,108.78h0A52.08,52.08,0,0,0,78.52,62.15a52.36,52.36,0,0,0-11.6-1.31A52.09,52.09,0,0,0,15.55,121h3a48.87,48.87,0,0,1,.17-17.11C24.05,105,29,106.95,29.58,108c-.06.59-.16,1.2-.25,1.81-.43,2.78-1,6.24,1.73,8.2,2.19,1.59,4.22-.16,5.31-1.09a8.54,8.54,0,0,1,1-.81,22.71,22.71,0,0,0,2.75,2.24A28.18,28.18,0,0,1,43.34,121h3.57c-.74-1.91-3-3.54-5-5A20.53,20.53,0,0,1,39.53,114c-2-2.07-4.1-.24-5.12.65s-1.38,1.1-1.59.94c-1.12-.82-.94-2.64-.52-5.31.11-.7.21-1.39.28-2.06.35-3.57-6.76-5.92-13.16-7.29A48.72,48.72,0,0,1,58.07,64.63a18.29,18.29,0,0,0-3,8.81c-.15,1.36-.34,2.57-.51,3.65-.66,4.19-1.19,7.5,3.5,9.59a19.9,19.9,0,0,0,6.83,1.74,15.89,15.89,0,0,1,3.19.56c1.05.32.8,4.38.72,5.72a6.65,6.65,0,0,0,.17,3c.39,2.33,2.79,13.5,13.68,19.55A16.85,16.85,0,0,1,75.53,121h7.2c1.66-1.12,2.95-2.42,3.14-3.7a2.35,2.35,0,0,0-1.32-2.47c-11-5.8-12.66-17.84-12.67-18L71.77,96l0,0c0-.33,0-.75.06-1.11.19-3.09.48-7.76-2.84-8.77a18.69,18.69,0,0,0-3.75-.67,17,17,0,0,1-5.92-1.5c-2.51-1.12-2.46-2-1.76-6.38.17-1.1.37-2.35.53-3.78.65-5.88,2.79-8.1,4.62-9.76q2.11-.18,4.26-.18a49.32,49.32,0,0,1,10.94,1.24,49.09,49.09,0,0,1,38,43.88c-.3,4.37-4.83,6.71-9.63,9.19a54.81,54.81,0,0,0-5.09,2.86h6.09l.37-.19c2.94-1.52,6.1-3.15,8.33-5.42a50.42,50.42,0,0,1-.62,5.61h3a52.11,52.11,0,0,0,.51-12.09S118.88,108.82,118.88,108.78Z"/><path d="M0,55.72l2.28,1.95a85.2,85.2,0,0,1,7.13-7.39l-2-2.21A88.15,88.15,0,0,0,0,55.72Z"/></g></g></svg>