<svg xmlns="http://www.w3.org/2000/svg" xmlns:xlink="http://www.w3.org/1999/xlink" viewBox="0 0 285.57 286.66"><defs><style>.cls-1{fill:url(#linear-gradient);}</style><linearGradient id="linear-gradient" x1="7.41" y1="31.45" x2="227.89" y2="-95.84" gradientTransform="matrix(1, 0, 0, -1, 0, 103.36)" gradientUnits="userSpaceOnUse"><stop offset="0.03" stop-color="#ff47e4"/><stop offset="0.52" stop-color="#b747e4"/><stop offset="1" stop-color="#6a4fb8"/></linearGradient></defs><title>Asset 5</title><g id="Layer_2" data-name="Layer 2"><g id="Layer_1-2" data-name="Layer 1"><g id="Layer_2-2" data-name="Layer 2"><g id="Layer_1-2-2" data-name="Layer 1-2"><path class="cls-1" d="M279.28,91.32a6.29,6.29,0,1,0,6.29,6.29A6.29,6.29,0,0,0,279.28,91.32Zm-19.24,0H206.95a6.3,6.3,0,0,1,0-12.6H232a6.29,6.29,0,0,0,0-12.58H218.4C199.78,23.67,160.47,0,115,0,51.49,0,0,46.17,0,125.33c0,26.08,12.48,52.49,29.23,76.18H21.28a6.29,6.29,0,0,0,0,12.57H62.71a6.29,6.29,0,0,1,0,12.57H46.62a6.29,6.29,0,1,0,0,12.58H60.9A443.07,443.07,0,0,0,115,286.66S226.43,207,229.92,129H234a6.29,6.29,0,1,0,.5-12.57H216.95a6.29,6.29,0,0,1,0-12.57H260a6.29,6.29,0,1,0,0-12.58ZM115,162.57A35.62,35.62,0,1,1,150.62,127v0A35.62,35.62,0,0,1,115,162.57Z"/></g></g></g></g></svg>