<svg xmlns="http://www.w3.org/2000/svg" viewBox="0 0 90.4 79.6"><title>Asset 8</title><g id="Layer_2" data-name="Layer 2"><g id="Layer_1-2" data-name="Layer 1"><rect x="19.1" y="13.9" width="52.2" height="65.7"/><path d="M9.6,79.6h5.3V13.9H9.4A9.39,9.39,0,0,0,0,23.3V70.1A9.65,9.65,0,0,0,9.6,79.6Z"/><path d="M80.8,79.6H75.5V13.9H81a9.39,9.39,0,0,1,9.4,9.4V70.1A9.65,9.65,0,0,1,80.8,79.6Z"/><path d="M60.6,0h-32a4.12,4.12,0,0,0-4.1,4.1v9.8h6.7V6.6h27v7.3h6.7V4.1A4.36,4.36,0,0,0,60.6,0Z"/></g></g></svg>