<svg xmlns="http://www.w3.org/2000/svg" viewBox="0 0 91.41 86.83"><title>Asset 9</title><g id="Layer_2" data-name="Layer 2"><g id="Layer_1-2" data-name="Layer 1"><path d="M91.41,15.24V28.78H0V15.24A6.79,6.79,0,0,1,6.77,8.46H16.93V3.39a3.39,3.39,0,1,1,6.77,0V8.46H33.86V3.39a3.39,3.39,0,0,1,6.77,0V8.46H50.78V3.39a3.39,3.39,0,1,1,6.77,0V8.46H67.71V3.39a3.39,3.39,0,1,1,6.77,0V8.46H84.64A6.79,6.79,0,0,1,91.41,15.24ZM0,80.06a6.79,6.79,0,0,0,6.77,6.77H84.64a6.79,6.79,0,0,0,6.77-6.77V32.66H0Z"/></g></g></svg>