<svg xmlns="http://www.w3.org/2000/svg" viewBox="0 0 91.5 83.69"><defs><style>.cls-1{fill:#b0a2d7;}</style></defs><title>Asset 7</title><g id="Layer_2" data-name="Layer 2"><g id="Layer_1-2" data-name="Layer 1"><path class="cls-1" d="M34.88,62.06H31.73a1.5,1.5,0,1,0,0,3h3.15a1.5,1.5,0,0,0,0-3Z"/><path class="cls-1" d="M12.81,62.06a1.5,1.5,0,1,0,0,3H16a1.5,1.5,0,0,0,0-3Z"/><path class="cls-1" d="M53.81,62.06H50.65a1.5,1.5,0,1,0,0,3h3.15a1.5,1.5,0,1,0,0-3Z"/><path class="cls-1" d="M25.42,62.06H22.27a1.5,1.5,0,1,0,0,3h3.15a1.5,1.5,0,1,0,0-3Z"/><path class="cls-1" d="M44.35,62.06H41.19a1.5,1.5,0,1,0,0,3h3.15a1.5,1.5,0,0,0,0-3Z"/><path class="cls-1" d="M82.19,62.06H79a1.5,1.5,0,1,0,0,3h3.15a1.5,1.5,0,0,0,0-3Z"/><path class="cls-1" d="M63.27,62.06H60.12a1.5,1.5,0,1,0,0,3h3.15a1.5,1.5,0,0,0,0-3Z"/><path class="cls-1" d="M72.73,62.06H69.58a1.5,1.5,0,1,0,0,3h3.15a1.5,1.5,0,1,0,0-3Z"/><path class="cls-1" d="M90,62.06H88.5a1.5,1.5,0,1,0,0,3H90a1.5,1.5,0,0,0,0-3Z"/><path class="cls-1" d="M5.12,65.06H6.5a1.5,1.5,0,1,0,0-3H5.12L21.19,46a1.5,1.5,0,0,0-2.12-2.12L.44,62.5a1.5,1.5,0,0,0,0,2.12L19.06,83.25a1.5,1.5,0,0,0,2.12-2.12Z"/><path class="cls-1" d="M61.27,20.13a1.5,1.5,0,0,0-1.5-1.5H56.62a1.5,1.5,0,0,0,0,3h3.15A1.5,1.5,0,0,0,61.27,20.13Z"/><path class="cls-1" d="M78.69,21.63a1.5,1.5,0,0,0,0-3H75.54a1.5,1.5,0,0,0,0,3Z"/><path class="cls-1" d="M42.35,20.13a1.5,1.5,0,0,0-1.5-1.5H37.69a1.5,1.5,0,0,0,0,3h3.15A1.5,1.5,0,0,0,42.35,20.13Z"/><path class="cls-1" d="M70.73,20.13a1.5,1.5,0,0,0-1.5-1.5H66.08a1.5,1.5,0,0,0,0,3h3.15A1.5,1.5,0,0,0,70.73,20.13Z"/><path class="cls-1" d="M51.81,20.13a1.5,1.5,0,0,0-1.5-1.5H47.15a1.5,1.5,0,0,0,0,3h3.15A1.5,1.5,0,0,0,51.81,20.13Z"/><path class="cls-1" d="M9.31,21.63h3.15a1.5,1.5,0,0,0,0-3H9.31a1.5,1.5,0,0,0,0,3Z"/><path class="cls-1" d="M32.88,20.13a1.5,1.5,0,0,0-1.5-1.5H28.23a1.5,1.5,0,0,0,0,3h3.15A1.5,1.5,0,0,0,32.88,20.13Z"/><path class="cls-1" d="M18.77,21.63h3.15a1.5,1.5,0,0,0,0-3H18.77a1.5,1.5,0,0,0,0,3Z"/><path class="cls-1" d="M1.5,21.63H3a1.5,1.5,0,0,0,0-3H1.5a1.5,1.5,0,0,0,0,3Z"/><path class="cls-1" d="M86.38,18.63H85a1.5,1.5,0,0,0,0,3h1.38L70.31,37.69a1.5,1.5,0,0,0,2.12,2.12L91.06,21.19a1.5,1.5,0,0,0,0-2.12L72.44.44a1.5,1.5,0,0,0-2.12,2.12Z"/></g></g></svg>