<?xml version="1.0" encoding="UTF-8" standalone="no"?>
<svg width="174px" height="141px" viewBox="0 0 174 141" version="1.1" xmlns="http://www.w3.org/2000/svg" xmlns:xlink="http://www.w3.org/1999/xlink">
    <!-- Generator: Sketch 44.1 (41455) - http://www.bohemiancoding.com/sketch -->
    <title>logo copy 3</title>
    <desc>Created with Sketch.</desc>
    <defs>
        <linearGradient x1="0%" y1="0%" x2="101.999998%" y2="100.999999%" id="linearGradient-1">
            <stop stop-color="#3023AE" offset="0%"></stop>
            <stop stop-color="#C96DD8" offset="100%"></stop>
        </linearGradient>
    </defs>
    <g id="Sales-page" stroke="none" stroke-width="1" fill="none" fill-rule="evenodd">
        <g id="mobile" transform="translate(-79.000000, -6740.000000)">
            <g id="logo-copy-3" transform="translate(79.000000, 6740.000000)">
                <path d="M123.059985,23.6588032 C123.934693,23.6616194 124.643098,24.3823436 124.645866,25.2722646 C124.645866,26.1633548 123.935843,26.885726 123.059985,26.885726 C122.184127,26.885726 121.474104,26.1633548 121.474104,25.2722646 C121.474104,24.3811745 122.184127,23.6588032 123.059985,23.6588032 Z M104.836222,23.5767193 L118.19897,23.6485427 C119.074828,23.6485427 119.784851,24.370914 119.784851,25.2620041 C119.784851,26.1530943 119.074828,26.8754655 118.19897,26.8754655 L107.344889,26.8754655 C106.494303,26.9099911 105.822228,27.621577 105.822228,28.4876444 C105.822228,29.3537118 106.494303,30.0652977 107.344889,30.0998232 L111.64366,30.0998232 C112.224867,30.0762319 112.772128,30.3782475 113.069633,30.8867706 C113.367137,31.3952938 113.367137,32.0287104 113.069633,32.5372335 C112.772128,33.0457567 112.224867,33.3477723 111.64366,33.3241809 L110.61498,33.3241809 C109.735056,53.3321284 81.6405079,73.7658861 81.6405079,73.7658861 C76.7771533,70.0933302 72.2154214,66.0244619 68.0004197,61.5995149 L64.4000415,61.5995149 C63.5241837,61.5995149 62.8141606,60.8771437 62.8141606,59.9860535 C62.8141606,59.0949634 63.5241837,58.3725921 64.4000415,58.3725921 L68.4567702,58.3725921 C69.3073563,58.3380666 69.9794304,57.6264807 69.9794304,56.7604133 C69.9794304,55.8943459 69.3073563,55.1827599 68.4567702,55.1482344 L58.0111351,55.1482344 C57.160549,55.1137089 56.4884749,54.402123 56.4884749,53.5360556 C56.4884749,52.6699882 57.160549,51.9584022 58.0111351,51.9238767 L60.0155473,51.9238767 C55.7924147,45.847104 52.6458656,39.0726182 52.6458656,32.3827813 C52.6458656,12.0772798 65.6279016,0.234113923 81.6405079,0.234113923 C93.1047374,0.234113923 103.015862,6.30575645 107.710473,17.1998273 L111.139405,17.1998273 C112.015263,17.1998273 112.725286,17.9221986 112.725286,18.8132888 C112.725286,19.7043789 112.015263,20.4267502 111.139405,20.4267502 L104.823615,20.4267502 C103.950455,20.4309493 103.243251,21.1493086 103.237735,22.0376464 C103.236339,22.9305712 103.945958,23.6559742 104.836222,23.5767193 Z M81.6405079,41.9352937 C78.006977,41.9352901 74.7314657,39.7077503 73.3421542,36.2919265 C71.9528427,32.8761027 72.7235131,28.9451278 75.2946114,26.3329866 C77.8657097,23.7208454 81.7305671,22.9422946 85.0860459,24.3605649 C88.4415247,25.7788351 90.6263836,29.1144375 90.6212832,32.8111566 C90.6143278,37.8523523 86.5955343,41.9352987 81.6405079,41.9352937 Z" id="Shape" fill="url(#linearGradient-1)"></path>
                <path d="M3.58995546,110.576806 L3.58995546,104.148833 L5.66383335,104.148833 L10.3180012,110.576806 L13.9111152,110.576806 L8.62996104,103.560011 C10.0286229,103.069326 11.885467,101.597271 11.885467,98.653161 C11.885467,95.6845169 10.3662309,93.3537634 5.76029279,93.3537634 C5.27799561,93.3537634 1.56430729,93.4028319 0.623827778,93.4028319 L0.623827778,110.576806 L3.58995546,110.576806 Z M5.61560364,96.1752019 C8.02708956,96.1752019 8.75053533,97.3283116 8.75053533,98.6776952 C8.75053533,100.444161 7.2312992,101.327394 5.5191442,101.327394 L3.58995546,101.327394 L3.58995546,96.2242704 C4.38574582,96.1997362 5.06096187,96.1752019 5.61560364,96.1752019 Z M13.0429803,105.0566 C13.0429803,108.368723 15.3580068,110.846682 18.9511208,110.846682 C22.5442348,110.846682 24.8592613,108.368723 24.8592613,105.0566 C24.8592613,101.744476 22.5442348,99.2665172 18.9511208,99.2665172 C15.3580068,99.2665172 13.0429803,101.744476 13.0429803,105.0566 Z M16.009108,105.0566 C16.009108,103.142928 17.3113104,101.916216 18.9511208,101.916216 C20.6391609,101.916216 21.9172485,103.191997 21.9172485,105.0566 C21.9172485,106.970271 20.6632758,108.221518 18.9511208,108.221518 C17.2630806,108.221518 16.009108,106.896668 16.009108,105.0566 Z M37.0854949,99.5363939 L34.3122861,99.5363939 L34.3122861,106.872134 C33.6852998,107.706298 32.79305,108.221518 31.8766853,108.221518 C30.3574492,108.221518 29.8028074,107.166545 29.8028074,105.69449 L29.8028074,99.5363939 L27.0295986,99.5363939 L27.0295986,106.283312 C27.0295986,109.44823 28.7176388,110.846682 30.8397464,110.846682 C32.5277865,110.846682 33.6611849,110.037052 34.3122861,109.227422 L34.3122861,110.576806 L37.0854949,110.576806 L37.0854949,99.5363939 Z M39.9310483,106.381449 C39.9310483,109.202888 40.8474129,110.822148 43.3071286,110.822148 C44.7057904,110.822148 45.8633037,110.282395 46.5144049,109.742641 L45.6703848,107.559093 C45.284547,107.853504 44.7540201,108.196983 44.0064595,108.196983 C43.0900949,108.196983 42.7042571,107.411888 42.7042571,106.209709 L42.7042571,102.186093 L46.2009117,102.186093 L46.2009117,99.5363939 L42.7042571,99.5363939 L42.7042571,96.4696129 L39.9310483,96.4696129 L39.9310483,106.381449 Z M49.2634988,110.576806 L52.0367076,110.576806 L52.0367076,99.5363939 L49.2634988,99.5363939 L49.2634988,110.576806 Z M48.9741205,95.5618457 C48.9741205,96.6904211 49.7699109,97.3283116 50.7103904,97.3283116 C51.5061807,97.3283116 52.3019711,96.6904211 52.3019711,95.5618457 C52.3019711,94.5559415 51.5061807,93.9180511 50.7103904,93.9180511 C49.7699109,93.9180511 48.9741205,94.5559415 48.9741205,95.5618457 Z M55.5333622,110.576806 L58.306571,110.576806 L58.306571,103.044791 C58.9576722,102.382367 59.7293477,101.989819 60.6698272,101.989819 C62.2131782,101.989819 63.105428,102.823983 63.105428,104.590449 L63.105428,110.576806 L65.8786368,110.576806 L65.8786368,104.099764 C65.8786368,100.640435 64.0700224,99.3401199 61.4173879,99.3401199 C60.1151855,99.3401199 58.9576722,99.9289419 58.306571,100.640435 L58.306571,99.5363939 L55.5333622,99.5363939 L55.5333622,110.576806 Z M77.2126206,107.48549 C76.5856343,108.000709 75.4763508,108.491394 74.1500335,108.491394 C72.4378785,108.491394 71.1356761,107.583627 70.8945275,105.915298 L78.7318568,105.915298 C78.8524311,105.498216 78.9006608,105.081134 78.9006608,104.394175 C78.9006608,101.30286 76.5615194,99.2665172 73.7641958,99.2665172 C70.1951966,99.2665172 68.0248593,101.842613 68.0248593,105.0566 C68.0248593,108.540463 70.3640006,110.846682 73.8606552,110.846682 C75.3798913,110.846682 76.9232423,110.405066 78.008411,109.472764 L77.2126206,107.48549 Z M73.6436215,101.621805 C75.2352022,101.621805 76.1515668,102.676778 76.127452,104.026161 L70.7980681,104.026161 C71.0874464,102.578641 71.9796962,101.621805 73.6436215,101.621805 Z M87.0514832,110.552271 C88.0401924,110.625874 90.2105298,110.674943 91.7538807,110.674943 C95.3228799,110.674943 98.0237441,109.055682 98.0237441,105.52275 C98.0237441,103.241065 96.7215417,101.94075 95.0576165,101.523668 L95.0576165,101.474599 C96.504508,100.787641 97.4691024,99.5363939 97.4691024,97.573654 C97.4691024,95.193832 95.9498663,93.3292291 91.9226848,93.3292291 C90.2346446,93.3292291 87.9919627,93.4028319 87.0514832,93.4519004 L87.0514832,110.552271 Z M92.1156036,103.191997 C93.9724478,103.191997 95.0576165,103.928024 95.0576165,105.375545 C95.0576165,106.994805 93.9724478,107.853504 91.9709145,107.853504 C91.1268944,107.853504 90.4275635,107.779901 90.0176109,107.730833 L90.0176109,103.191997 L92.1156036,103.191997 Z M91.874455,96.1506677 C93.4660358,96.1506677 94.5270896,96.8866951 94.5270896,98.2851472 C94.5270896,99.8553391 93.3936912,100.566832 92.0191442,100.566832 L90.0176109,100.566832 L90.0176109,96.2242704 C90.5481378,96.1752019 91.199239,96.1506677 91.874455,96.1506677 Z M101.134561,110.576806 L103.90777,110.576806 L103.90777,103.167463 C104.221263,102.529572 104.727675,101.989819 105.692269,101.989819 C106.271026,101.989819 106.560404,102.087956 107.090931,102.406901 L108.07964,99.7572021 C107.717918,99.4873254 107.28385,99.3401199 106.3916,99.3401199 C105.089398,99.3401199 104.414182,99.9044076 103.90777,100.615901 L103.90777,99.5363939 L101.134561,99.5363939 L101.134561,110.576806 Z M118.183766,107.48549 C117.55678,108.000709 116.447497,108.491394 115.121179,108.491394 C113.409024,108.491394 112.106822,107.583627 111.865673,105.915298 L119.703003,105.915298 C119.823577,105.498216 119.871807,105.081134 119.871807,104.394175 C119.871807,101.30286 117.532665,99.2665172 114.735342,99.2665172 C111.166342,99.2665172 108.996005,101.842613 108.996005,105.0566 C108.996005,108.540463 111.335146,110.846682 114.831801,110.846682 C116.351037,110.846682 117.894388,110.405066 118.979557,109.472764 L118.183766,107.48549 Z M114.614767,101.621805 C116.206348,101.621805 117.122713,102.676778 117.098598,104.026161 L111.769214,104.026161 C112.058592,102.578641 112.950842,101.621805 114.614767,101.621805 Z M122.958509,102.382367 C123.754299,102.014353 124.550089,101.621805 125.804062,101.621805 C127.419758,101.621805 127.902055,102.627709 127.82971,104.467778 C127.299183,104.07523 126.334589,103.756285 125.369994,103.756285 C123.175542,103.756285 121.415158,104.909394 121.415158,107.338285 C121.415158,109.472764 122.837934,110.724011 124.815353,110.724011 C126.286359,110.724011 127.443872,110.135189 128.022629,109.301025 L128.022629,110.576806 L130.434115,110.576806 L130.434115,103.854422 C130.434115,100.934846 129.300717,99.2665172 126.09344,99.2665172 C124.670664,99.2665172 123.199657,99.7572021 122.259178,100.32149 L122.958509,102.382367 Z M125.731717,108.344189 C124.863582,108.344189 124.188366,107.878038 124.188366,107.043874 C124.188366,106.111572 125.008272,105.669956 125.924636,105.669956 C126.720427,105.669956 127.347413,105.841696 127.82971,106.209709 L127.82971,107.338285 C127.492102,107.82897 126.889231,108.344189 125.731717,108.344189 Z M143.480254,99.5363939 L139.983599,99.5363939 L136.101107,104.811257 L140.393552,110.576806 L143.962551,110.576806 L139.404843,104.590449 L143.480254,99.5363939 Z M133.279668,110.576806 L136.052877,110.576806 L136.052877,93.4028319 L133.279668,93.4028319 L133.279668,110.576806 Z M152.885049,107.48549 C152.258063,108.000709 151.148779,108.491394 149.822462,108.491394 C148.110307,108.491394 146.808104,107.583627 146.566956,105.915298 L154.404285,105.915298 C154.524859,105.498216 154.573089,105.081134 154.573089,104.394175 C154.573089,101.30286 152.233948,99.2665172 149.436624,99.2665172 C145.867625,99.2665172 143.697287,101.842613 143.697287,105.0566 C143.697287,108.540463 146.036429,110.846682 149.533083,110.846682 C151.05232,110.846682 152.595671,110.405066 153.680839,109.472764 L152.885049,107.48549 Z M149.31605,101.621805 C150.90763,101.621805 151.823995,102.676778 151.79988,104.026161 L146.470496,104.026161 C146.759875,102.578641 147.652124,101.621805 149.31605,101.621805 Z M156.815771,110.576806 L159.58898,110.576806 L159.58898,103.167463 C159.902473,102.529572 160.408885,101.989819 161.373479,101.989819 C161.952236,101.989819 162.241614,102.087956 162.772141,102.406901 L163.76085,99.7572021 C163.399127,99.4873254 162.96506,99.3401199 162.07281,99.3401199 C160.770608,99.3401199 160.095392,99.9044076 159.58898,100.615901 L159.58898,99.5363939 L156.815771,99.5363939 L156.815771,110.576806 Z M170.850619,107.460956 C170.850619,108.147915 170.223633,108.491394 169.427842,108.491394 C168.342674,108.491394 166.702863,107.82897 166.051762,107.117477 L164.70133,108.957545 C165.207742,109.742641 167.23339,110.846682 169.234923,110.846682 C171.887558,110.846682 173.623828,109.497299 173.623828,107.313751 C173.623828,103.412805 167.763917,104.418709 167.763917,102.578641 C167.763917,102.087956 168.270329,101.621805 169.114349,101.621805 C170.271862,101.621805 171.405261,102.161558 172.056362,102.676778 L173.093301,100.664969 C172.418085,100.027079 171.067653,99.2665172 168.96966,99.2665172 C166.726978,99.2665172 164.990708,100.468695 164.990708,102.627709 C164.990708,106.651326 170.850619,105.669956 170.850619,107.460956 Z" id="Routine-Breakers" fill="#4A4A4A"></path>
                <path d="M75.1347656,140 L70.1865234,140 L70.1865234,127.317383 L75.0380859,127.317383 C77.3671875,127.317383 78.7910156,128.539062 78.7910156,130.481445 C78.7910156,131.799805 77.8242188,132.995117 76.6025391,133.214844 L76.6025391,133.355469 C78.3339844,133.575195 79.4326172,134.761719 79.4326172,136.44043 C79.4326172,138.672852 77.8330078,140 75.1347656,140 Z M71.7685547,128.714844 L71.7685547,132.78418 L74.2998047,132.78418 C76.2158203,132.78418 77.1914062,132.098633 77.1914062,130.753906 C77.1914062,129.461914 76.2773438,128.714844 74.7041016,128.714844 L71.7685547,128.714844 Z M71.7685547,138.602539 L74.8974609,138.602539 C76.8046875,138.602539 77.8066406,137.829102 77.8066406,136.361328 C77.8066406,134.893555 76.7695312,134.146484 74.7480469,134.146484 L71.7685547,134.146484 L71.7685547,138.602539 Z M85.171875,131.694336 C83.6601562,131.694336 82.6054688,132.801758 82.4912109,134.480469 L87.7119141,134.480469 C87.6767578,132.801758 86.6748047,131.694336 85.171875,131.694336 Z M87.6679688,137.547852 L89.1796875,137.547852 C88.7226562,139.173828 87.2636719,140.166992 85.1894531,140.166992 C82.5615234,140.166992 80.9179688,138.268555 80.9179688,135.271484 C80.9179688,132.291992 82.5878906,130.358398 85.1894531,130.358398 C87.7470703,130.358398 89.3027344,132.177734 89.3027344,135.12207 L89.3027344,135.702148 L82.4912109,135.702148 L82.4912109,135.772461 C82.5703125,137.644531 83.6162109,138.831055 85.2246094,138.831055 C86.4462891,138.831055 87.2724609,138.382812 87.6679688,137.547852 Z M91.8779297,128.073242 L91.8779297,130.525391 L90.3486328,130.525391 L90.3486328,131.791016 L91.8779297,131.791016 L91.8779297,137.539062 C91.8779297,139.349609 92.6601562,140.070312 94.6113281,140.070312 C94.9101562,140.070312 95.2001953,140.035156 95.4990234,139.982422 L95.4990234,138.708008 C95.2177734,138.734375 95.0683594,138.743164 94.7958984,138.743164 C93.8115234,138.743164 93.3896484,138.268555 93.3896484,137.152344 L93.3896484,131.791016 L95.4990234,131.791016 L95.4990234,130.525391 L93.3896484,130.525391 L93.3896484,128.073242 L91.8779297,128.073242 Z M100.271484,138.839844 C101.827148,138.839844 102.978516,137.820312 102.978516,136.466797 L102.978516,135.59668 L100.429688,135.763672 C98.9882812,135.860352 98.3554688,136.361328 98.3554688,137.310547 C98.3554688,138.277344 99.1728516,138.839844 100.271484,138.839844 Z M99.9902344,140.166992 C98.1533203,140.166992 96.7910156,139.077148 96.7910156,137.345703 C96.7910156,135.649414 98.0390625,134.673828 100.245117,134.541992 L102.978516,134.375 L102.978516,133.513672 C102.978516,132.344727 102.249023,131.703125 100.833984,131.703125 C99.7001953,131.703125 98.9091797,132.133789 98.6982422,132.880859 L97.1689453,132.880859 C97.3710938,131.360352 98.8652344,130.358398 100.886719,130.358398 C103.198242,130.358398 104.490234,131.544922 104.490234,133.513672 L104.490234,140 L103.048828,140 L103.048828,138.602539 L102.908203,138.602539 C102.292969,139.613281 101.255859,140.166992 99.9902344,140.166992 Z" id="Beta" fill="#4A4A4A"></path>
            </g>
        </g>
    </g>
</svg>