<?xml version="1.0" encoding="UTF-8" standalone="no"?>
<svg width="165px" height="35px" viewBox="0 0 165 35" version="1.1" xmlns="http://www.w3.org/2000/svg" xmlns:xlink="http://www.w3.org/1999/xlink">
    <!-- Generator: Sketch 44.1 (41455) - http://www.bohemiancoding.com/sketch -->
    <title>logo2 copy</title>
    <desc>Created with Sketch.</desc>
    <defs></defs>
    <g id="Sales-page" stroke="none" stroke-width="1" fill="none" fill-rule="evenodd">
        <g id="mobile-menu" transform="translate(-12.000000, -12.000000)" fill="#FFFFFF">
            <g id="logo2" transform="translate(12.000000, 12.000000)">
                <g id="logo-copy">
                    <path d="M32.5584435,10.8312286 C32.9628958,10.8325308 33.2904514,11.165783 33.2917313,11.5772692 C33.2917313,11.9892961 32.9634272,12.3233098 32.5584435,12.3233098 C32.1534599,12.3233098 31.8251557,11.9892961 31.8251557,11.5772692 C31.8251557,11.1652424 32.1534599,10.8312286 32.5584435,10.8312286 Z M24.132046,10.7932743 L30.3107824,10.8264843 C30.7157661,10.8264843 31.0440702,11.1604981 31.0440702,11.5725249 C31.0440702,11.9845518 30.7157661,12.3185655 30.3107824,12.3185655 L25.2920163,12.3185655 C24.8987179,12.3345296 24.5879608,12.6635564 24.5879608,13.0640131 C24.5879608,13.4644698 24.8987179,13.7934966 25.2920163,13.8094607 L27.2797042,13.8094607 C27.5484457,13.7985524 27.8014914,13.9381999 27.939053,14.1733335 C28.0766146,14.408467 28.0766146,14.7013495 27.939053,14.936483 C27.8014914,15.1716166 27.5484457,15.3112641 27.2797042,15.3003558 L26.8040581,15.3003558 C26.3971941,24.5517338 13.4066922,34 13.4066922,34 C11.1579492,32.3018647 9.04867212,30.4204804 7.09971788,28.3744506 L5.43495645,28.3744506 C5.02997279,28.3744506 4.70166867,28.0404368 4.70166867,27.62841 C4.70166867,27.2163831 5.02997279,26.8823694 5.43495645,26.8823694 L7.31072756,26.8823694 C7.70402597,26.8664053 8.01478305,26.5373785 8.01478305,26.1369218 C8.01478305,25.7364651 7.70402597,25.4074383 7.31072756,25.3914742 L2.48082096,25.3914742 C2.08752255,25.3755101 1.77676547,25.0464834 1.77676547,24.6460267 C1.77676547,24.2455699 2.08752255,23.9165432 2.48082096,23.9005791 L3.40763142,23.9005791 C1.45491756,21.0907696 0,17.9583479 0,14.8650666 C0,5.4761041 6.00270072,0 13.4066922,0 C18.7075818,0 23.2903389,2.80743738 25.4610572,7.84469406 L27.0465443,7.84469406 C27.451528,7.84469406 27.7798321,8.17870782 27.7798321,8.59073467 C27.7798321,9.00276152 27.451528,9.33677527 27.0465443,9.33677527 L24.126217,9.33677527 C23.7224807,9.3387169 23.39548,9.67087556 23.3929292,10.0816298 C23.3922841,10.494505 23.7204011,10.8299205 24.132046,10.7932743 Z M13.4066922,19.2820066 C11.7266014,19.2820049 10.2120537,18.2520235 9.56965664,16.6725973 C8.92725963,15.0931711 9.28360618,13.2755467 10.4724439,12.0677313 C11.6612815,10.859916 13.4483343,10.4999257 14.9998578,11.1557128 C16.5513814,11.8114999 17.5616278,13.3538329 17.5592694,15.063141 C17.5560533,17.3941151 15.6978228,19.2820089 13.4066922,19.2820066 Z" id="Shape"></path>
                    <path d="M46.4633851,15.0752838 L46.4633851,10.6073724 L47.904882,10.6073724 L51.1398691,15.0752838 L53.6373462,15.0752838 L49.9665577,10.198098 C50.93873,9.8570361 52.2293725,8.83385027 52.2293725,6.78747861 C52.2293725,4.72405385 51.1733923,3.10400962 47.9719283,3.10400962 C47.6366965,3.10400962 45.0554115,3.13811581 44.4017094,3.13811581 L44.4017094,15.0752838 L46.4633851,15.0752838 Z M47.8713588,5.06511579 C49.5475179,5.06511579 50.0503656,5.86661136 50.0503656,6.80453171 C50.0503656,8.0323547 48.9943854,8.6462662 47.8043124,8.6462662 L46.4633851,8.6462662 L46.4633851,5.09922199 C47.0165176,5.08216889 47.4858422,5.06511579 47.8713588,5.06511579 Z M53.0339289,11.238337 C53.0339289,13.5405051 54.6430416,15.2628679 57.1405187,15.2628679 C59.6379958,15.2628679 61.2471086,13.5405051 61.2471086,11.238337 C61.2471086,8.93616885 59.6379958,7.21380604 57.1405187,7.21380604 C54.6430416,7.21380604 53.0339289,8.93616885 53.0339289,11.238337 Z M55.0956046,11.238337 C55.0956046,9.90819539 56.0007305,9.05554053 57.1405187,9.05554053 C58.3138301,9.05554053 59.2021945,9.94230159 59.2021945,11.238337 C59.2021945,12.5684786 58.3305917,13.4381865 57.1405187,13.4381865 C55.9672074,13.4381865 55.0956046,12.5173193 55.0956046,11.238337 Z M69.7452354,7.40139011 L67.8176524,7.40139011 L67.8176524,12.5002662 C67.381851,13.0800715 66.7616721,13.4381865 66.1247316,13.4381865 C65.0687514,13.4381865 64.6832348,12.7049033 64.6832348,11.6817175 L64.6832348,7.40139011 L62.7556518,7.40139011 L62.7556518,12.0909918 C62.7556518,14.2908414 63.9289632,15.2628679 65.4039832,15.2628679 C66.5772946,15.2628679 67.3650894,14.7001157 67.8176524,14.1373635 L67.8176524,15.0752838 L69.7452354,15.0752838 L69.7452354,7.40139011 Z M71.7231031,12.1592042 C71.7231031,14.1203104 72.3600436,15.2458148 74.0697259,15.2458148 C75.0418982,15.2458148 75.8464546,14.8706467 76.2990175,14.4954785 L75.7123618,12.9777529 C75.4441764,13.18239 75.0754214,13.4211334 74.555812,13.4211334 C73.9188716,13.4211334 73.6506861,12.8754343 73.6506861,12.0398325 L73.6506861,9.2431246 L76.0811168,9.2431246 L76.0811168,7.40139011 L73.6506861,7.40139011 L73.6506861,5.26975296 L71.7231031,5.26975296 L71.7231031,12.1592042 Z M78.2098389,15.0752838 L80.1374219,15.0752838 L80.1374219,7.40139011 L78.2098389,7.40139011 L78.2098389,15.0752838 Z M78.0086998,4.63878836 C78.0086998,5.42323083 78.5618323,5.86661136 79.2155344,5.86661136 C79.7686669,5.86661136 80.3217994,5.42323083 80.3217994,4.63878836 C80.3217994,3.93961138 79.7686669,3.49623085 79.2155344,3.49623085 C78.5618323,3.49623085 78.0086998,3.93961138 78.0086998,4.63878836 Z M82.5678527,15.0752838 L84.4954356,15.0752838 L84.4954356,9.839983 C84.9479986,9.37954938 85.4843695,9.10669982 86.1380716,9.10669982 C87.2108134,9.10669982 87.8309923,9.68650513 87.8309923,10.9143281 L87.8309923,15.0752838 L89.7585753,15.0752838 L89.7585753,10.5732662 C89.7585753,8.16877948 88.501456,7.26496533 86.6576809,7.26496533 C85.752555,7.26496533 84.9479986,7.67423966 84.4954356,8.16877948 L84.4954356,7.40139011 L82.5678527,7.40139011 L82.5678527,15.0752838 Z M97.6365232,12.9265936 C97.2007218,13.2847086 96.4296886,13.6257706 95.5078011,13.6257706 C94.3177281,13.6257706 93.4126022,12.994806 93.2449863,11.8351954 L98.6925034,11.8351954 C98.7763114,11.5452927 98.8098346,11.2553901 98.8098346,10.7779033 C98.8098346,8.6292131 97.1839602,7.21380604 95.2396156,7.21380604 C92.7589001,7.21380604 91.2503569,9.00438124 91.2503569,11.238337 C91.2503569,13.6598768 92.8762313,15.2628679 95.306662,15.2628679 C96.3626422,15.2628679 97.4353841,14.9559122 98.1896557,14.3078945 L97.6365232,12.9265936 Z M95.1558077,8.85090337 C96.2620727,8.85090337 96.8990132,9.58418655 96.8822516,10.5221069 L93.1779399,10.5221069 C93.379079,9.51597416 93.9992579,8.85090337 95.1558077,8.85090337 Z M104.475252,15.0582307 C105.162478,15.10939 106.671021,15.1434962 107.743763,15.1434962 C110.224478,15.1434962 112.101776,14.0179918 112.101776,11.5623458 C112.101776,9.97640778 111.19665,9.07259363 110.040101,8.78269098 L110.040101,8.74858478 C111.045796,8.27109806 111.71626,7.40139011 111.71626,6.03714233 C111.71626,4.38299191 110.66028,3.08695652 107.861094,3.08695652 C106.687782,3.08695652 105.128954,3.13811581 104.475252,3.17222201 L104.475252,15.0582307 Z M107.995187,9.94230159 C109.285829,9.94230159 110.040101,10.4538945 110.040101,11.4600272 C110.040101,12.5855316 109.285829,13.18239 107.894617,13.18239 C107.307961,13.18239 106.821875,13.1312308 106.536928,13.0971246 L106.536928,9.94230159 L107.995187,9.94230159 Z M107.827571,5.0480627 C108.933836,5.0480627 109.671346,5.55965561 109.671346,6.53168215 C109.671346,7.62308037 108.883551,8.11762019 107.92814,8.11762019 L106.536928,8.11762019 L106.536928,5.09922199 C106.905683,5.06511579 107.358246,5.0480627 107.827571,5.0480627 Z M114.264022,15.0752838 L116.191605,15.0752838 L116.191605,9.92524849 C116.409505,9.48186796 116.761499,9.10669982 117.431962,9.10669982 C117.834241,9.10669982 118.03538,9.17491221 118.404135,9.39660248 L119.09136,7.55486798 C118.839936,7.36728391 118.538227,7.26496533 117.918049,7.26496533 C117.012923,7.26496533 116.543598,7.65718656 116.191605,8.15172638 L116.191605,7.40139011 L114.264022,7.40139011 L114.264022,15.0752838 Z M126.114467,12.9265936 C125.678665,13.2847086 124.907632,13.6257706 123.985745,13.6257706 C122.795672,13.6257706 121.890546,12.994806 121.72293,11.8351954 L127.170447,11.8351954 C127.254255,11.5452927 127.287778,11.2553901 127.287778,10.7779033 C127.287778,8.6292131 125.661904,7.21380604 123.717559,7.21380604 C121.236844,7.21380604 119.7283,9.00438124 119.7283,11.238337 C119.7283,13.6598768 121.354175,15.2628679 123.784606,15.2628679 C124.840586,15.2628679 125.913328,14.9559122 126.667599,14.3078945 L126.114467,12.9265936 Z M123.633751,8.85090337 C124.740016,8.85090337 125.376957,9.58418655 125.360195,10.5221069 L121.655883,10.5221069 C121.857023,9.51597416 122.477201,8.85090337 123.633751,8.85090337 Z M129.433262,9.37954938 C129.986394,9.12375292 130.539527,8.85090337 131.41113,8.85090337 C132.534156,8.85090337 132.869388,9.55008035 132.819103,10.8290626 C132.450348,10.5562131 131.779885,10.3345228 131.109421,10.3345228 C129.584116,10.3345228 128.36052,11.1360184 128.36052,12.824275 C128.36052,14.3078945 129.349454,15.1776024 130.723904,15.1776024 C131.746361,15.1776024 132.550918,14.7683281 132.953196,14.1885228 L132.953196,15.0752838 L134.629355,15.0752838 L134.629355,10.4027352 C134.629355,8.37341665 133.84156,7.21380604 131.612269,7.21380604 C130.623335,7.21380604 129.600878,7.55486798 128.947176,7.94708922 L129.433262,9.37954938 Z M131.360845,13.523452 C130.757427,13.523452 130.288103,13.1994431 130.288103,12.6196378 C130.288103,11.9716201 130.857997,11.6646644 131.494937,11.6646644 C132.04807,11.6646644 132.483871,11.7840361 132.819103,12.0398325 L132.819103,12.824275 C132.584441,13.165337 132.165401,13.523452 131.360845,13.523452 Z M143.697376,7.40139011 L141.266945,7.40139011 L138.568329,11.067806 L141.551892,15.0752838 L144.032608,15.0752838 L140.864667,10.9143281 L143.697376,7.40139011 Z M136.607223,15.0752838 L138.534806,15.0752838 L138.534806,3.13811581 L136.607223,3.13811581 L136.607223,15.0752838 Z M150.234396,12.9265936 C149.798595,13.2847086 149.027562,13.6257706 148.105674,13.6257706 C146.915601,13.6257706 146.010475,12.994806 145.84286,11.8351954 L151.290377,11.8351954 C151.374185,11.5452927 151.407708,11.2553901 151.407708,10.7779033 C151.407708,8.6292131 149.781834,7.21380604 147.837489,7.21380604 C145.356773,7.21380604 143.84823,9.00438124 143.84823,11.238337 C143.84823,13.6598768 145.474105,15.2628679 147.904535,15.2628679 C148.960516,15.2628679 150.033257,14.9559122 150.787529,14.3078945 L150.234396,12.9265936 Z M147.753681,8.85090337 C148.859946,8.85090337 149.496886,9.58418655 149.480125,10.5221069 L145.775813,10.5221069 C145.976952,9.51597416 146.597131,8.85090337 147.753681,8.85090337 Z M152.966536,15.0752838 L154.894119,15.0752838 L154.894119,9.92524849 C155.11202,9.48186796 155.464013,9.10669982 156.134477,9.10669982 C156.536755,9.10669982 156.737894,9.17491221 157.106649,9.39660248 L157.793874,7.55486798 C157.54245,7.36728391 157.240742,7.26496533 156.620563,7.26496533 C155.715437,7.26496533 155.246112,7.65718656 154.894119,8.15172638 L154.894119,7.40139011 L152.966536,7.40139011 L152.966536,15.0752838 Z M162.721782,12.9095405 C162.721782,13.3870272 162.285981,13.6257706 161.732848,13.6257706 C160.978576,13.6257706 159.838788,13.165337 159.386225,12.6707971 L158.447576,13.9497794 C158.79957,14.4954785 160.207543,15.2628679 161.598755,15.2628679 C163.44253,15.2628679 164.649365,14.3249476 164.649365,12.8072219 C164.649365,10.0957795 160.576298,10.7949564 160.576298,9.51597416 C160.576298,9.17491221 160.928292,8.85090337 161.514947,8.85090337 C162.319504,8.85090337 163.107299,9.2260715 163.559862,9.58418655 L164.28061,8.18583258 C163.811285,7.74245205 162.872636,7.21380604 161.414378,7.21380604 C159.85555,7.21380604 158.648715,8.0494078 158.648715,9.55008035 C158.648715,12.3467883 162.721782,11.6646644 162.721782,12.9095405 Z" id="Routine-Breakers"></path>
                    <text id="Beta" font-family=".AppleSystemUIFont" font-size="14" font-weight="normal">
                        <tspan x="44" y="34">Beta</tspan>
                    </text>
                </g>
            </g>
        </g>
    </g>
</svg>