<?xml version="1.0" encoding="UTF-8" standalone="no"?>
<svg width="34px" height="34px" viewBox="0 0 34 34" version="1.1" xmlns="http://www.w3.org/2000/svg" xmlns:xlink="http://www.w3.org/1999/xlink">
    <!-- Generator: Sketch 44.1 (41455) - http://www.bohemiancoding.com/sketch -->
    <title>Shape</title>
    <desc>Created with Sketch.</desc>
    <defs>
        <linearGradient x1="0%" y1="0%" x2="101.999998%" y2="100.999999%" id="linearGradient-1">
            <stop stop-color="#3023AE" offset="0%"></stop>
            <stop stop-color="#C96DD8" offset="100%"></stop>
        </linearGradient>
    </defs>
    <g id="Symbols" stroke="none" stroke-width="1" fill="none" fill-rule="evenodd">
        <g id="logo-color" fill="url(#linearGradient-1)">
            <g id="logo-copy-2">
                <path d="M32.5584435,10.8312286 C32.9628958,10.8325308 33.2904514,11.165783 33.2917313,11.5772692 C33.2917313,11.9892961 32.9634272,12.3233098 32.5584435,12.3233098 C32.1534599,12.3233098 31.8251557,11.9892961 31.8251557,11.5772692 C31.8251557,11.1652424 32.1534599,10.8312286 32.5584435,10.8312286 Z M24.132046,10.7932743 L30.3107824,10.8264843 C30.7157661,10.8264843 31.0440702,11.1604981 31.0440702,11.5725249 C31.0440702,11.9845518 30.7157661,12.3185655 30.3107824,12.3185655 L25.2920163,12.3185655 C24.8987179,12.3345296 24.5879608,12.6635564 24.5879608,13.0640131 C24.5879608,13.4644698 24.8987179,13.7934966 25.2920163,13.8094607 L27.2797042,13.8094607 C27.5484457,13.7985524 27.8014914,13.9381999 27.939053,14.1733335 C28.0766146,14.408467 28.0766146,14.7013495 27.939053,14.936483 C27.8014914,15.1716166 27.5484457,15.3112641 27.2797042,15.3003558 L26.8040581,15.3003558 C26.3971941,24.5517338 13.4066922,34 13.4066922,34 C11.1579492,32.3018647 9.04867212,30.4204804 7.09971788,28.3744506 L5.43495645,28.3744506 C5.02997279,28.3744506 4.70166867,28.0404368 4.70166867,27.62841 C4.70166867,27.2163831 5.02997279,26.8823694 5.43495645,26.8823694 L7.31072756,26.8823694 C7.70402597,26.8664053 8.01478305,26.5373785 8.01478305,26.1369218 C8.01478305,25.7364651 7.70402597,25.4074383 7.31072756,25.3914742 L2.48082096,25.3914742 C2.08752255,25.3755101 1.77676547,25.0464834 1.77676547,24.6460267 C1.77676547,24.2455699 2.08752255,23.9165432 2.48082096,23.9005791 L3.40763142,23.9005791 C1.45491756,21.0907696 0,17.9583479 0,14.8650666 C0,5.4761041 6.00270072,0 13.4066922,0 C18.7075818,0 23.2903389,2.80743738 25.4610572,7.84469406 L27.0465443,7.84469406 C27.451528,7.84469406 27.7798321,8.17870782 27.7798321,8.59073467 C27.7798321,9.00276152 27.451528,9.33677527 27.0465443,9.33677527 L24.126217,9.33677527 C23.7224807,9.3387169 23.39548,9.67087556 23.3929292,10.0816298 C23.3922841,10.494505 23.7204011,10.8299205 24.132046,10.7932743 Z M13.4066922,19.2820066 C11.7266014,19.2820049 10.2120537,18.2520235 9.56965664,16.6725973 C8.92725963,15.0931711 9.28360618,13.2755467 10.4724439,12.0677313 C11.6612815,10.859916 13.4483343,10.4999257 14.9998578,11.1557128 C16.5513814,11.8114999 17.5616278,13.3538329 17.5592694,15.063141 C17.5560533,17.3941151 15.6978228,19.2820089 13.4066922,19.2820066 Z" id="Shape"></path>
            </g>
        </g>
    </g>
</svg>