<?xml version="1.0" encoding="UTF-8" standalone="no"?>
<svg width="165px" height="34px" viewBox="0 0 165 34" version="1.1" xmlns="http://www.w3.org/2000/svg" xmlns:xlink="http://www.w3.org/1999/xlink">
    <!-- Generator: Sketch 44.1 (41455) - http://www.bohemiancoding.com/sketch -->
    <title>logo copy 2</title>
    <desc>Created with Sketch.</desc>
    <defs>
        <linearGradient x1="0%" y1="0%" x2="101.999998%" y2="100.999999%" id="linearGradient-1">
            <stop stop-color="#3023AE" offset="0%"></stop>
            <stop stop-color="#C96DD8" offset="100%"></stop>
        </linearGradient>
    </defs>
    <g id="Symbols" stroke="none" stroke-width="1" fill="none" fill-rule="evenodd">
        <g id="logo-color">
            <g id="logo-copy-2">
                <path d="M32.5584435,10.8312286 C32.9628958,10.8325308 33.2904514,11.165783 33.2917313,11.5772692 C33.2917313,11.9892961 32.9634272,12.3233098 32.5584435,12.3233098 C32.1534599,12.3233098 31.8251557,11.9892961 31.8251557,11.5772692 C31.8251557,11.1652424 32.1534599,10.8312286 32.5584435,10.8312286 Z M24.132046,10.7932743 L30.3107824,10.8264843 C30.7157661,10.8264843 31.0440702,11.1604981 31.0440702,11.5725249 C31.0440702,11.9845518 30.7157661,12.3185655 30.3107824,12.3185655 L25.2920163,12.3185655 C24.8987179,12.3345296 24.5879608,12.6635564 24.5879608,13.0640131 C24.5879608,13.4644698 24.8987179,13.7934966 25.2920163,13.8094607 L27.2797042,13.8094607 C27.5484457,13.7985524 27.8014914,13.9381999 27.939053,14.1733335 C28.0766146,14.408467 28.0766146,14.7013495 27.939053,14.936483 C27.8014914,15.1716166 27.5484457,15.3112641 27.2797042,15.3003558 L26.8040581,15.3003558 C26.3971941,24.5517338 13.4066922,34 13.4066922,34 C11.1579492,32.3018647 9.04867212,30.4204804 7.09971788,28.3744506 L5.43495645,28.3744506 C5.02997279,28.3744506 4.70166867,28.0404368 4.70166867,27.62841 C4.70166867,27.2163831 5.02997279,26.8823694 5.43495645,26.8823694 L7.31072756,26.8823694 C7.70402597,26.8664053 8.01478305,26.5373785 8.01478305,26.1369218 C8.01478305,25.7364651 7.70402597,25.4074383 7.31072756,25.3914742 L2.48082096,25.3914742 C2.08752255,25.3755101 1.77676547,25.0464834 1.77676547,24.6460267 C1.77676547,24.2455699 2.08752255,23.9165432 2.48082096,23.9005791 L3.40763142,23.9005791 C1.45491756,21.0907696 0,17.9583479 0,14.8650666 C0,5.4761041 6.00270072,0 13.4066922,0 C18.7075818,0 23.2903389,2.80743738 25.4610572,7.84469406 L27.0465443,7.84469406 C27.451528,7.84469406 27.7798321,8.17870782 27.7798321,8.59073467 C27.7798321,9.00276152 27.451528,9.33677527 27.0465443,9.33677527 L24.126217,9.33677527 C23.7224807,9.3387169 23.39548,9.67087556 23.3929292,10.0816298 C23.3922841,10.494505 23.7204011,10.8299205 24.132046,10.7932743 Z M13.4066922,19.2820066 C11.7266014,19.2820049 10.2120537,18.2520235 9.56965664,16.6725973 C8.92725963,15.0931711 9.28360618,13.2755467 10.4724439,12.0677313 C11.6612815,10.859916 13.4483343,10.4999257 14.9998578,11.1557128 C16.5513814,11.8114999 17.5616278,13.3538329 17.5592694,15.063141 C17.5560533,17.3941151 15.6978228,19.2820089 13.4066922,19.2820066 Z" id="Shape" fill="url(#linearGradient-1)"></path>
                <path d="M46.4633851,16.0752838 L46.4633851,11.6073724 L47.904882,11.6073724 L51.1398691,16.0752838 L53.6373462,16.0752838 L49.9665577,11.198098 C50.93873,10.8570361 52.2293725,9.83385027 52.2293725,7.78747861 C52.2293725,5.72405385 51.1733923,4.10400962 47.9719283,4.10400962 C47.6366965,4.10400962 45.0554115,4.13811581 44.4017094,4.13811581 L44.4017094,16.0752838 L46.4633851,16.0752838 Z M47.8713588,6.06511579 C49.5475179,6.06511579 50.0503656,6.86661136 50.0503656,7.80453171 C50.0503656,9.0323547 48.9943854,9.6462662 47.8043124,9.6462662 L46.4633851,9.6462662 L46.4633851,6.09922199 C47.0165176,6.08216889 47.4858422,6.06511579 47.8713588,6.06511579 Z M53.0339289,12.238337 C53.0339289,14.5405051 54.6430416,16.2628679 57.1405187,16.2628679 C59.6379958,16.2628679 61.2471086,14.5405051 61.2471086,12.238337 C61.2471086,9.93616885 59.6379958,8.21380604 57.1405187,8.21380604 C54.6430416,8.21380604 53.0339289,9.93616885 53.0339289,12.238337 Z M55.0956046,12.238337 C55.0956046,10.9081954 56.0007305,10.0555405 57.1405187,10.0555405 C58.3138301,10.0555405 59.2021945,10.9423016 59.2021945,12.238337 C59.2021945,13.5684786 58.3305917,14.4381865 57.1405187,14.4381865 C55.9672074,14.4381865 55.0956046,13.5173193 55.0956046,12.238337 Z M69.7452354,8.40139011 L67.8176524,8.40139011 L67.8176524,13.5002662 C67.381851,14.0800715 66.7616721,14.4381865 66.1247316,14.4381865 C65.0687514,14.4381865 64.6832348,13.7049033 64.6832348,12.6817175 L64.6832348,8.40139011 L62.7556518,8.40139011 L62.7556518,13.0909918 C62.7556518,15.2908414 63.9289632,16.2628679 65.4039832,16.2628679 C66.5772946,16.2628679 67.3650894,15.7001157 67.8176524,15.1373635 L67.8176524,16.0752838 L69.7452354,16.0752838 L69.7452354,8.40139011 Z M71.7231031,13.1592042 C71.7231031,15.1203104 72.3600436,16.2458148 74.0697259,16.2458148 C75.0418982,16.2458148 75.8464546,15.8706467 76.2990175,15.4954785 L75.7123618,13.9777529 C75.4441764,14.18239 75.0754214,14.4211334 74.555812,14.4211334 C73.9188716,14.4211334 73.6506861,13.8754343 73.6506861,13.0398325 L73.6506861,10.2431246 L76.0811168,10.2431246 L76.0811168,8.40139011 L73.6506861,8.40139011 L73.6506861,6.26975296 L71.7231031,6.26975296 L71.7231031,13.1592042 Z M78.2098389,16.0752838 L80.1374219,16.0752838 L80.1374219,8.40139011 L78.2098389,8.40139011 L78.2098389,16.0752838 Z M78.0086998,5.63878836 C78.0086998,6.42323083 78.5618323,6.86661136 79.2155344,6.86661136 C79.7686669,6.86661136 80.3217994,6.42323083 80.3217994,5.63878836 C80.3217994,4.93961138 79.7686669,4.49623085 79.2155344,4.49623085 C78.5618323,4.49623085 78.0086998,4.93961138 78.0086998,5.63878836 Z M82.5678527,16.0752838 L84.4954356,16.0752838 L84.4954356,10.839983 C84.9479986,10.3795494 85.4843695,10.1066998 86.1380716,10.1066998 C87.2108134,10.1066998 87.8309923,10.6865051 87.8309923,11.9143281 L87.8309923,16.0752838 L89.7585753,16.0752838 L89.7585753,11.5732662 C89.7585753,9.16877948 88.501456,8.26496533 86.6576809,8.26496533 C85.752555,8.26496533 84.9479986,8.67423966 84.4954356,9.16877948 L84.4954356,8.40139011 L82.5678527,8.40139011 L82.5678527,16.0752838 Z M97.6365232,13.9265936 C97.2007218,14.2847086 96.4296886,14.6257706 95.5078011,14.6257706 C94.3177281,14.6257706 93.4126022,13.994806 93.2449863,12.8351954 L98.6925034,12.8351954 C98.7763114,12.5452927 98.8098346,12.2553901 98.8098346,11.7779033 C98.8098346,9.6292131 97.1839602,8.21380604 95.2396156,8.21380604 C92.7589001,8.21380604 91.2503569,10.0043812 91.2503569,12.238337 C91.2503569,14.6598768 92.8762313,16.2628679 95.306662,16.2628679 C96.3626422,16.2628679 97.4353841,15.9559122 98.1896557,15.3078945 L97.6365232,13.9265936 Z M95.1558077,9.85090337 C96.2620727,9.85090337 96.8990132,10.5841865 96.8822516,11.5221069 L93.1779399,11.5221069 C93.379079,10.5159742 93.9992579,9.85090337 95.1558077,9.85090337 Z M104.475252,16.0582307 C105.162478,16.10939 106.671021,16.1434962 107.743763,16.1434962 C110.224478,16.1434962 112.101776,15.0179918 112.101776,12.5623458 C112.101776,10.9764078 111.19665,10.0725936 110.040101,9.78269098 L110.040101,9.74858478 C111.045796,9.27109806 111.71626,8.40139011 111.71626,7.03714233 C111.71626,5.38299191 110.66028,4.08695652 107.861094,4.08695652 C106.687782,4.08695652 105.128954,4.13811581 104.475252,4.17222201 L104.475252,16.0582307 Z M107.995187,10.9423016 C109.285829,10.9423016 110.040101,11.4538945 110.040101,12.4600272 C110.040101,13.5855316 109.285829,14.18239 107.894617,14.18239 C107.307961,14.18239 106.821875,14.1312308 106.536928,14.0971246 L106.536928,10.9423016 L107.995187,10.9423016 Z M107.827571,6.0480627 C108.933836,6.0480627 109.671346,6.55965561 109.671346,7.53168215 C109.671346,8.62308037 108.883551,9.11762019 107.92814,9.11762019 L106.536928,9.11762019 L106.536928,6.09922199 C106.905683,6.06511579 107.358246,6.0480627 107.827571,6.0480627 Z M114.264022,16.0752838 L116.191605,16.0752838 L116.191605,10.9252485 C116.409505,10.481868 116.761499,10.1066998 117.431962,10.1066998 C117.834241,10.1066998 118.03538,10.1749122 118.404135,10.3966025 L119.09136,8.55486798 C118.839936,8.36728391 118.538227,8.26496533 117.918049,8.26496533 C117.012923,8.26496533 116.543598,8.65718656 116.191605,9.15172638 L116.191605,8.40139011 L114.264022,8.40139011 L114.264022,16.0752838 Z M126.114467,13.9265936 C125.678665,14.2847086 124.907632,14.6257706 123.985745,14.6257706 C122.795672,14.6257706 121.890546,13.994806 121.72293,12.8351954 L127.170447,12.8351954 C127.254255,12.5452927 127.287778,12.2553901 127.287778,11.7779033 C127.287778,9.6292131 125.661904,8.21380604 123.717559,8.21380604 C121.236844,8.21380604 119.7283,10.0043812 119.7283,12.238337 C119.7283,14.6598768 121.354175,16.2628679 123.784606,16.2628679 C124.840586,16.2628679 125.913328,15.9559122 126.667599,15.3078945 L126.114467,13.9265936 Z M123.633751,9.85090337 C124.740016,9.85090337 125.376957,10.5841865 125.360195,11.5221069 L121.655883,11.5221069 C121.857023,10.5159742 122.477201,9.85090337 123.633751,9.85090337 Z M129.433262,10.3795494 C129.986394,10.1237529 130.539527,9.85090337 131.41113,9.85090337 C132.534156,9.85090337 132.869388,10.5500804 132.819103,11.8290626 C132.450348,11.5562131 131.779885,11.3345228 131.109421,11.3345228 C129.584116,11.3345228 128.36052,12.1360184 128.36052,13.824275 C128.36052,15.3078945 129.349454,16.1776024 130.723904,16.1776024 C131.746361,16.1776024 132.550918,15.7683281 132.953196,15.1885228 L132.953196,16.0752838 L134.629355,16.0752838 L134.629355,11.4027352 C134.629355,9.37341665 133.84156,8.21380604 131.612269,8.21380604 C130.623335,8.21380604 129.600878,8.55486798 128.947176,8.94708922 L129.433262,10.3795494 Z M131.360845,14.523452 C130.757427,14.523452 130.288103,14.1994431 130.288103,13.6196378 C130.288103,12.9716201 130.857997,12.6646644 131.494937,12.6646644 C132.04807,12.6646644 132.483871,12.7840361 132.819103,13.0398325 L132.819103,13.824275 C132.584441,14.165337 132.165401,14.523452 131.360845,14.523452 Z M143.697376,8.40139011 L141.266945,8.40139011 L138.568329,12.067806 L141.551892,16.0752838 L144.032608,16.0752838 L140.864667,11.9143281 L143.697376,8.40139011 Z M136.607223,16.0752838 L138.534806,16.0752838 L138.534806,4.13811581 L136.607223,4.13811581 L136.607223,16.0752838 Z M150.234396,13.9265936 C149.798595,14.2847086 149.027562,14.6257706 148.105674,14.6257706 C146.915601,14.6257706 146.010475,13.994806 145.84286,12.8351954 L151.290377,12.8351954 C151.374185,12.5452927 151.407708,12.2553901 151.407708,11.7779033 C151.407708,9.6292131 149.781834,8.21380604 147.837489,8.21380604 C145.356773,8.21380604 143.84823,10.0043812 143.84823,12.238337 C143.84823,14.6598768 145.474105,16.2628679 147.904535,16.2628679 C148.960516,16.2628679 150.033257,15.9559122 150.787529,15.3078945 L150.234396,13.9265936 Z M147.753681,9.85090337 C148.859946,9.85090337 149.496886,10.5841865 149.480125,11.5221069 L145.775813,11.5221069 C145.976952,10.5159742 146.597131,9.85090337 147.753681,9.85090337 Z M152.966536,16.0752838 L154.894119,16.0752838 L154.894119,10.9252485 C155.11202,10.481868 155.464013,10.1066998 156.134477,10.1066998 C156.536755,10.1066998 156.737894,10.1749122 157.106649,10.3966025 L157.793874,8.55486798 C157.54245,8.36728391 157.240742,8.26496533 156.620563,8.26496533 C155.715437,8.26496533 155.246112,8.65718656 154.894119,9.15172638 L154.894119,8.40139011 L152.966536,8.40139011 L152.966536,16.0752838 Z M162.721782,13.9095405 C162.721782,14.3870272 162.285981,14.6257706 161.732848,14.6257706 C160.978576,14.6257706 159.838788,14.165337 159.386225,13.6707971 L158.447576,14.9497794 C158.79957,15.4954785 160.207543,16.2628679 161.598755,16.2628679 C163.44253,16.2628679 164.649365,15.3249476 164.649365,13.8072219 C164.649365,11.0957795 160.576298,11.7949564 160.576298,10.5159742 C160.576298,10.1749122 160.928292,9.85090337 161.514947,9.85090337 C162.319504,9.85090337 163.107299,10.2260715 163.559862,10.5841865 L164.28061,9.18583258 C163.811285,8.74245205 162.872636,8.21380604 161.414378,8.21380604 C159.85555,8.21380604 158.648715,9.0494078 158.648715,10.5500804 C158.648715,13.3467883 162.721782,12.6646644 162.721782,13.9095405 Z" id="Routine-Breakers" fill="#4A4A4A"></path>
                <path d="M48.9,27.358 C49.1893348,27.358 49.4646654,27.3136671 49.726,27.225 C49.9873346,27.1363329 50.215999,27.0056675 50.412,26.833 C50.608001,26.6603325 50.7619994,26.4503346 50.874,26.203 C50.9860006,25.9556654 51.042,25.6733349 51.042,25.356 C51.042,25.1693324 51.0023337,25.0153339 50.923,24.894 C50.8436663,24.7726661 50.7410006,24.6770004 50.615,24.607 C50.4889994,24.5369996 50.3443342,24.4880001 50.181,24.46 C50.0176659,24.4319999 49.8520008,24.418 49.684,24.418 L46.996,24.418 L46.478,27.358 L48.9,27.358 Z M46.282,28.506 L45.694,31.852 L48.606,31.852 C49.2966701,31.852 49.8356647,31.6723351 50.223,31.313 C50.6103353,30.9536649 50.804,30.4333367 50.804,29.752 C50.804,29.5279989 50.7596671,29.3366675 50.671,29.178 C50.5823329,29.0193325 50.4656674,28.8910005 50.321,28.793 C50.1763326,28.6949995 50.006001,28.6226669 49.81,28.576 C49.613999,28.5293331 49.4086677,28.506 49.194,28.506 L46.282,28.506 Z M50.916,27.834 C51.2613351,27.9926675 51.5459989,28.2283318 51.77,28.541 C51.9940011,28.8536682 52.106,29.2199979 52.106,29.64 C52.106,30.181336 52.008001,30.6619979 51.812,31.082 C51.615999,31.5020021 51.3453351,31.8543319 51,32.139 C50.6546649,32.4236681 50.2533356,32.6383326 49.796,32.783 C49.3386644,32.9276674 48.8533359,33 48.34,33 L44.224,33 L45.946,23.27 L49.852,23.27 C50.1880017,23.27 50.5029985,23.3049996 50.797,23.375 C51.0910015,23.4450004 51.3499989,23.5569992 51.574,23.711 C51.7980011,23.8650008 51.9729994,24.0656654 52.099,24.313 C52.2250006,24.5603346 52.288,24.8613316 52.288,25.216 C52.288,25.7106691 52.1783344,26.1773311 51.959,26.616 C51.7396656,27.0546689 51.396669,27.4326651 50.93,27.75 L50.916,27.834 Z M59.876,27.834 C59.876,28.3100024 59.778001,28.6949985 59.582,28.989 C59.385999,29.2830015 59.1293349,29.5139992 58.812,29.682 C58.4946651,29.8500008 58.1423353,29.9689997 57.755,30.039 C57.3676647,30.1090003 56.9826686,30.1579999 56.6,30.186 L54.43,30.326 L54.43,30.522 C54.43,30.8206682 54.4836661,31.0726656 54.591,31.278 C54.6983339,31.4833344 54.8359992,31.6489994 55.004,31.775 C55.1720008,31.9010006 55.3656656,31.9919997 55.585,32.048 C55.8043344,32.1040003 56.0259989,32.132 56.25,32.132 C56.6326686,32.132 56.9849984,32.0550008 57.307,31.901 C57.6290016,31.7469992 57.9206654,31.534668 58.182,31.264 L59.162,31.698 C58.7886648,32.1740024 58.331336,32.5379987 57.79,32.79 C57.248664,33.0420013 56.6746697,33.168 56.068,33.168 C55.2186624,33.168 54.5373359,32.9533355 54.024,32.524 C53.5106641,32.0946645 53.254,31.4226712 53.254,30.508 C53.254,29.9013303 53.3403325,29.3133362 53.513,28.744 C53.6856675,28.1746638 53.9423316,27.6706689 54.283,27.232 C54.6236684,26.7933311 55.0529974,26.4410013 55.571,26.175 C56.0890026,25.9089987 56.6933299,25.776 57.384,25.776 C58.2146708,25.776 58.8376646,25.971998 59.253,26.364 C59.6683354,26.756002 59.876,27.2459971 59.876,27.834 Z M56.782,29.15 C56.9873344,29.1406666 57.2043322,29.1126669 57.433,29.066 C57.6616678,29.0193331 57.8716657,28.9446672 58.063,28.842 C58.2543343,28.7393328 58.4106661,28.6040008 58.532,28.436 C58.6533339,28.2679992 58.714,28.0533346 58.714,27.792 C58.714,27.521332 58.5833346,27.2903343 58.322,27.099 C58.0606654,26.9076657 57.6826691,26.812 57.188,26.812 C56.8333316,26.812 56.5113348,26.879666 56.222,27.015 C55.9326652,27.150334 55.6760011,27.3299989 55.452,27.554 C55.2279989,27.7780011 55.0413341,28.0393318 54.892,28.338 C54.7426659,28.6366682 54.6353337,28.9539983 54.57,29.29 L56.782,29.15 Z M61.738,26.882 L60.94,26.882 L61.094,25.944 L61.892,25.944 L62.158,24.432 L63.432,24.096 L63.096,25.944 L64.384,25.944 L63.936,26.882 L62.942,26.882 L62.158,31.292 C62.1393332,31.3853338 62.13,31.4553331 62.13,31.502 C62.13,31.9220021 62.3773309,32.132 62.872,32.132 L63.39,32.132 L63.236,33.014 C63.0959993,33.0606669 62.9630006,33.0979999 62.837,33.126 C62.7109994,33.1540001 62.5733341,33.168 62.424,33.168 C61.9759978,33.168 61.6143347,33.0256681 61.339,32.741 C61.0636653,32.4563319 60.926,32.0900022 60.926,31.642 L60.926,31.467 C60.926,31.406333 60.9353332,31.3480003 60.954,31.292 L61.738,26.882 Z M67.296,32.132 C67.492001,32.132 67.6833324,32.0993337 67.87,32.034 C68.0566676,31.9686663 68.2386658,31.8823339 68.416,31.775 C68.5933342,31.6676661 68.7636659,31.5486673 68.927,31.418 C69.0903342,31.2873327 69.2466659,31.1520007 69.396,31.012 L70.096,27.05 C69.899999,26.9566662 69.7110009,26.8936668 69.529,26.861 C69.3469991,26.8283332 69.1440011,26.812 68.92,26.812 C68.3413304,26.812 67.8630019,26.9309988 67.485,27.169 C67.1069981,27.4070012 66.8083344,27.7149981 66.589,28.093 C66.3696656,28.4710019 66.2156671,28.893331 66.127,29.36 C66.0383329,29.826669 65.994,30.293331 65.994,30.76 C65.994,31.1986689 66.098999,31.5369988 66.309,31.775 C66.5190011,32.0130012 66.8479978,32.132 67.296,32.132 Z M70.502,31.516 C70.4739999,31.712001 70.46,31.8893325 70.46,32.048 C70.46,32.2066675 70.4786665,32.3676659 70.516,32.531 C70.5533335,32.6943342 70.5999997,32.8506659 70.656,33 L69.368,33 C69.3306665,32.9346663 69.3003335,32.8483339 69.277,32.741 C69.2536666,32.6336661 69.242,32.5146673 69.242,32.384 C69.242,32.2906662 69.2466666,32.2206669 69.256,32.174 C68.9199983,32.4540014 68.5746684,32.6896657 68.22,32.881 C67.8653316,33.0723343 67.5060018,33.168 67.142,33.168 C66.3673295,33.168 65.7933352,32.972002 65.42,32.58 C65.0466648,32.187998 64.86,31.6140038 64.86,30.858 C64.86,30.1859966 64.9346659,29.5443364 65.084,28.933 C65.2333341,28.3216636 65.4806649,27.782669 65.826,27.316 C66.1713351,26.849331 66.6193306,26.4760014 67.17,26.196 C67.7206694,25.9159986 68.3973293,25.776 69.2,25.776 C69.6386689,25.776 70.0259983,25.8179996 70.362,25.902 C70.6980017,25.9860004 71.0526648,26.1119992 71.426,26.28 L70.502,31.516 Z" id="Beta" fill="#4A4A4A"></path>
            </g>
        </g>
    </g>
</svg>