<?xml version="1.0" encoding="UTF-8" standalone="no"?>
<svg width="17px" height="16px" viewBox="0 0 17 16" version="1.1" xmlns="http://www.w3.org/2000/svg" xmlns:xlink="http://www.w3.org/1999/xlink">
    <!-- Generator: Sketch 44.1 (41455) - http://www.bohemiancoding.com/sketch -->
    <title>Page 1</title>
    <desc>Created with Sketch.</desc>
    <defs></defs>
    <g id="Sales-page" stroke="none" stroke-width="1" fill="none" fill-rule="evenodd" opacity="0.5">
        <g id="Sales-Page" transform="translate(-729.000000, -2783.000000)" fill="#FFFFFF">
            <g id="Group-2" transform="translate(523.000000, 2769.000000)">
                <path d="M217.181284,22.2033382 C216.638594,22.2033382 216.198703,21.7631979 216.198703,21.2207573 C216.198703,20.6783168 216.638594,20.2381764 217.181284,20.2381764 C217.723974,20.2381764 218.163865,20.6783168 218.163865,21.2207573 C218.163865,21.7631979 217.723974,22.2033382 217.181284,22.2033382 M214.158438,22.2033382 C213.615997,22.2033382 213.175857,21.7631979 213.175857,21.2207573 C213.175857,20.6783168 213.615997,20.2381764 214.158438,20.2381764 C214.701377,20.2381764 215.141019,20.6783168 215.141019,21.2207573 C215.141019,21.7631979 214.701377,22.2033382 214.158438,22.2033382 M211.135841,22.2033382 C210.593151,22.2033382 210.15326,21.7631979 210.15326,21.2207573 C210.15326,20.6783168 210.593151,20.2381764 211.135841,20.2381764 C211.678531,20.2381764 212.118422,20.6783168 212.118422,21.2207573 C212.118422,21.7631979 211.678282,22.2033382 211.135841,22.2033382 M219.567373,14.7491472 L208.557627,14.7491472 C207.179818,14.7491472 206.0625,15.8664649 206.0625,17.2442739 L206.0625,29.8758528 L209.848855,27.1000244 L219.567373,27.1000244 C220.945182,27.1000244 222.0625,25.9827066 222.0625,24.6048977 L222.0625,17.2442739 C222.0625,15.8664649 220.945182,14.7491472 219.567373,14.7491472" id="Page-1"></path>
            </g>
        </g>
    </g>
</svg>