<svg xmlns="http://www.w3.org/2000/svg" viewBox="0 0 102.48 101.18"><title>Asset 1</title><g id="Layer_2" data-name="Layer 2"><g id="Layer_1-2" data-name="Layer 1"><path d="M99.32,82.75,78.78,62.21A42,42,0,1,0,63.85,77.82L84,98A10.8,10.8,0,0,0,99.32,82.75ZM97.2,95.9a7.8,7.8,0,0,1-11,0L64.25,74A39,39,0,1,1,75,62.69L97.2,84.87A7.8,7.8,0,0,1,97.2,95.9Z"/><path d="M63.64,35.24h0l-10.12.34-11.86-22H35a2.64,2.64,0,0,0-2.63,2.64v.21L38.09,36l-11.15.1-4.25-6.43H18.32A2.36,2.36,0,0,0,16,32.07V52.24a2.36,2.36,0,0,0,2.36,2.35h4.38L27,48l11.11.08L32.4,67.88v.21A2.64,2.64,0,0,0,35,70.73h6.62L53.59,48.59l10.09.33a7,7,0,0,0,7.15-6.84,6.64,6.64,0,0,0-2.12-4.87A7.31,7.31,0,0,0,63.64,35.24Zm.1,10.68-11.9-.4-12,22.2h-4.3l6.55-22.58L25.41,45,21.08,51.6H19V32.71h2.12l4.26,6.44L42.07,39l-6.5-22.43h4.3L51.76,38.64l11.93-.4a4.28,4.28,0,0,1,3,1.15,3.67,3.67,0,0,1,1.19,2.68A4,4,0,0,1,63.73,45.92Z"/></g></g></svg>