<?xml version="1.0" encoding="UTF-8" standalone="no"?>
<svg width="169px" height="161px" viewBox="0 0 169 161" version="1.1" xmlns="http://www.w3.org/2000/svg" xmlns:xlink="http://www.w3.org/1999/xlink">
    <!-- Generator: Sketch 44.1 (41455) - http://www.bohemiancoding.com/sketch -->
    <title>Group 7</title>
    <desc>Created with Sketch.</desc>
    <defs>
        <circle id="path-1" cx="80.5" cy="80.5" r="80.5"></circle>
    </defs>
    <g id="Sales-page" stroke="none" stroke-width="1" fill="none" fill-rule="evenodd">
        <g id="Sales-Page" transform="translate(-551.000000, -1279.000000)">
            <g id="Stacked-Group" transform="translate(141.000000, 1279.000000)">
                <g id="Group-4" transform="translate(404.000000, 0.000000)">
                    <g id="Group-7" transform="translate(6.000000, 0.000000)">
                        <g id="Page-1-Copy" transform="translate(8.000000, 0.000000)">
                            <mask id="mask-2" fill="white">
                                <use xlink:href="#path-1"></use>
                            </mask>
                            <use id="Mask" fill-opacity="0.143880208" fill="#B0A3D7" xlink:href="#path-1"></use>
                            <path d="M106.221,76.748 L100.926,81.703 L105.094,95.631 L104.213,96.512 L97.69,84.658 L89.995,92.248 L90.905,96.687 L90.735,96.855 L83.946,90.066 L84.116,89.894 L88.475,90.785 L96.061,83.068 L84.29,76.588 L85.171,75.707 L99.007,79.848 L103.958,74.555 C104.616,73.895 105.718,73.834 106.31,74.43 C106.924,75.043 106.868,76.1 106.221,76.748 L106.221,76.748 Z M108.432,72.309 C107.592,71.467 106.461,71.004 105.25,71.004 C103.971,71.004 102.758,71.512 101.801,72.471 L98.086,76.442 L84.315,72.321 L81.348,75.288 C80.512,76.13 80.514,77.495 81.354,78.331 L81.504,78.479 L91.147,83.788 L87.479,87.52 L83.135,86.633 L81.115,88.654 C80.736,89.029 80.527,89.531 80.527,90.062 C80.527,90.595 80.734,91.097 81.111,91.474 L89.326,99.689 C89.703,100.066 90.203,100.273 90.734,100.273 L90.736,100.273 C91.269,100.273 91.771,100.064 92.144,99.689 L94.167,97.666 L93.259,93.24 L96.972,89.578 L102.322,99.299 L102.474,99.451 C103.288,100.262 104.704,100.26 105.517,99.449 L108.48,96.486 L104.332,82.623 L108.305,78.904 C110.159,77.053 110.215,74.094 108.432,72.309 L108.432,72.309 Z M58.662,74.276 L61.662,74.276 L61.662,68.276 L58.662,68.276 L58.662,74.276 Z M58.662,86.276 L61.662,86.276 L61.662,80.276 L58.662,80.276 L58.662,86.276 Z M58.662,98.276 L61.662,98.276 L61.662,92.276 L58.662,92.276 L58.662,98.276 Z M124.09,102.696 C124.09,106.05 120.873,108.776 116.918,108.776 L61.662,108.776 L61.662,104.276 L58.662,104.276 L58.662,108.776 L42.171,108.776 C38.217,108.776 35,106.049 35,102.696 L35,66.381 C35,63.027 38.217,60.301 42.171,60.301 L58.662,60.301 L58.662,62.276 L61.662,62.276 L61.662,60.301 L116.918,60.301 C120.873,60.301 124.09,63.028 124.09,66.381 L124.09,102.696 Z M109.749,48.119 C110.2,48.039 110.655,48 111.106,48 C114.215,48 116.805,49.891 117.264,52.498 L118.123,57.369 C117.727,57.328 117.326,57.301 116.918,57.301 L57.684,57.301 L109.749,48.119 Z M121.319,58.207 L120.219,51.977 C119.506,47.934 115.674,45 111.106,45 C110.481,45 109.85,45.055 109.227,45.164 L40.117,57.352 C35.39,58.184 32.019,61.983 32.013,66.157 C32.011,66.233 32,66.305 32,66.382 L32,102.696 C32,107.704 36.563,111.776 42.171,111.776 L116.919,111.776 C122.528,111.776 127.091,107.704 127.091,102.696 L127.091,66.381 C127.09,62.782 124.727,59.674 121.319,58.207 L121.319,58.207 Z" id="Page-1" fill="#B0A3D7" mask="url(#mask-2)"></path>
                        </g>
                        <g id="number-in-circle">
                            <circle id="Oval" fill="#6A4FB8" fill-rule="evenodd" cx="20" cy="20" r="20"></circle>
                            <text id="1" font-family="Roboto-Medium, Roboto" font-size="18" font-weight="400" fill="#FFFFFF">
                                <tspan x="15.3847656" y="26">2</tspan>
                            </text>
                        </g>
                    </g>
                </g>
            </g>
        </g>
    </g>
</svg>