<svg xmlns="http://www.w3.org/2000/svg" viewBox="0 0 95.09 66.78"><title>Asset 2</title><g id="Layer_2" data-name="Layer 2"><g id="Layer_1-2" data-name="Layer 1"><path d="M89.32,13.21,88.22,7c-.71-4-4.54-7-9.11-7a10.92,10.92,0,0,0-1.88.16L8.12,12.35C3.39,13.18,0,17,0,21.16c0,.08,0,.15,0,.23V57.7c0,5,4.56,9.08,10.17,9.08H84.92c5.61,0,10.17-4.07,10.17-9.08V21.38A9.07,9.07,0,0,0,89.32,13.21ZM77.75,3.12A7.77,7.77,0,0,1,79.11,3c3.11,0,5.7,1.89,6.16,4.5l.86,4.87a11.67,11.67,0,0,0-1.2-.07H25.68ZM92.09,57.7c0,3.35-3.22,6.08-7.17,6.08H29.66v-4.5h-3v4.5H10.17C6.22,63.78,3,61,3,57.7V21.38C3,18,6.22,15.3,10.17,15.3H26.66v2h3v-2H84.92c4,0,7.17,2.73,7.17,6.08Z"/><rect x="26.66" y="47.28" width="3" height="6"/><rect x="26.66" y="23.28" width="3" height="6"/><rect x="26.66" y="35.28" width="3" height="6"/><path d="M76.43,27.31A4.46,4.46,0,0,0,73.25,26a4.83,4.83,0,0,0-3.45,1.47l-3.72,4L52.32,27.32l-3,3a2.16,2.16,0,0,0,0,3l.15.15,9.64,5.31-3.67,3.73-4.34-.89-2,2a2,2,0,0,0,0,2.82l8.21,8.22a2,2,0,0,0,1.41.58h0a2,2,0,0,0,1.41-.58l2-2-.91-4.43L65,44.58l5.35,9.72.15.15a2.21,2.21,0,0,0,3,0l3-3L72.33,37.62l4-3.72A4.67,4.67,0,0,0,76.43,27.31Zm-2.21,4.44-5.29,5,4.17,13.93-.88.88L65.69,39.66,58,47.25l.91,4.44-.17.17-6.79-6.79.17-.17,4.36.89,7.59-7.72L52.29,31.59l.88-.88L67,34.85l5-5.29a1.71,1.71,0,0,1,2.35-.12A1.66,1.66,0,0,1,74.22,31.75Z"/></g></g></svg>