<?xml version="1.0" encoding="UTF-8" standalone="no"?>
<svg width="169px" height="161px" viewBox="0 0 169 161" version="1.1" xmlns="http://www.w3.org/2000/svg" xmlns:xlink="http://www.w3.org/1999/xlink">
    <!-- Generator: Sketch 44.1 (41455) - http://www.bohemiancoding.com/sketch -->
    <title>Group 8</title>
    <desc>Created with Sketch.</desc>
    <defs>
        <circle id="path-1" cx="80.5" cy="80.5" r="80.5"></circle>
    </defs>
    <g id="Sales-page" stroke="none" stroke-width="1" fill="none" fill-rule="evenodd">
        <g id="Sales-Page" transform="translate(-947.000000, -1279.000000)">
            <g id="Stacked-Group" transform="translate(141.000000, 1279.000000)">
                <g id="Group-5" transform="translate(800.000000, 0.000000)">
                    <g id="Group-8" transform="translate(6.000000, 0.000000)">
                        <g id="Page-1-Copy-2" transform="translate(8.000000, 0.000000)">
                            <mask id="mask-2" fill="white">
                                <use xlink:href="#path-1"></use>
                            </mask>
                            <use id="Mask" fill="#F3F1F9" xlink:href="#path-1"></use>
                            <path d="M130.878,149.777 L130.853,149.775 C130.208,141.484 127.566,133.42 123.013,126.179 C115.613,114.413 104.074,106.234 90.521,103.146 C86.703,102.277 82.8,101.835 78.919,101.835 C54.509,101.835 33.667,118.483 28.233,142.321 C26.737,148.885 26.536,155.54 27.553,161.997 L30.602,161.997 C29.663,156.386 29.7,150.61 30.776,144.882 C36.055,146.048 41.036,147.946 41.583,149.032 C41.52,149.622 41.427,150.233 41.331,150.846 C40.903,153.627 40.37,157.088 43.058,159.043 C45.247,160.631 47.275,158.887 48.367,157.949 C48.664,157.695 49.129,157.295 49.406,157.142 C50.097,157.859 51.099,158.599 52.158,159.378 C53.012,160.009 54.439,161.062 55.344,161.995 L58.91,161.995 C58.166,160.087 55.955,158.452 53.939,156.964 C52.964,156.245 52.044,155.568 51.533,155.026 C49.572,152.958 47.437,154.79 46.412,155.672 C45.402,156.539 45.029,156.768 44.822,156.613 C43.699,155.797 43.884,153.978 44.297,151.3 C44.404,150.605 44.51,149.911 44.578,149.241 C44.93,145.669 37.822,143.325 31.42,141.946 C36.17,122.96 51.358,109.01 70.066,105.628 C68.736,107.517 67.527,110.222 67.06,114.442 C66.91,115.803 66.718,117.016 66.548,118.087 C65.884,122.276 65.36,125.587 70.052,127.677 C73.054,129.017 75.087,129.232 76.88,129.419 C77.985,129.536 78.941,129.636 80.066,129.98 C81.119,130.302 80.869,134.363 80.787,135.697 C80.705,137.015 80.644,137.988 80.957,138.648 C81.348,140.982 83.745,152.144 94.641,158.199 C93.659,159.306 90.371,161.347 87.528,161.994 L94.729,161.994 C96.385,160.877 97.674,159.578 97.868,158.293 C98.022,157.266 97.528,156.342 96.546,155.82 C85.558,150.015 83.888,137.976 83.872,137.857 L83.767,137.011 L83.722,136.991 C83.734,136.661 83.759,136.245 83.783,135.882 C83.974,132.792 84.262,128.124 80.943,127.111 C79.543,126.683 78.349,126.558 77.197,126.437 C75.472,126.255 73.845,126.083 71.277,124.937 C68.765,123.82 68.818,122.955 69.513,118.556 C69.687,117.452 69.886,116.202 70.044,114.773 C70.694,108.896 72.831,106.677 74.661,105.013 C76.065,104.894 77.487,104.831 78.921,104.831 C82.578,104.831 86.257,105.247 89.857,106.067 C102.628,108.977 113.502,116.684 120.474,127.772 C124.755,134.577 127.242,142.155 127.859,149.948 C127.562,154.315 123.031,156.661 118.23,159.136 C116.478,160.04 114.71,160.956 113.144,161.993 L119.236,161.993 C119.359,161.929 119.48,161.866 119.605,161.802 C122.546,160.286 125.707,158.656 127.933,156.384 C127.833,158.253 127.622,160.124 127.31,161.993 L130.359,161.993 C131,157.956 131.17,153.905 130.869,149.905 C130.868,149.863 130.876,149.822 130.878,149.777 L130.878,149.777 Z M58.754,60.129 L60.871,60.129 L65.131,66.57 L81.866,66.425 L75.362,44 L79.659,44.002 L91.55,66.055 L103.484,65.657 C104.607,65.657 105.66,66.067 106.447,66.811 C107.211,67.534 107.633,68.487 107.631,69.497 C107.631,71.614 105.77,73.339 103.531,73.339 L91.629,72.944 L79.657,95.143 L75.362,95.143 L81.911,72.567 L65.203,72.45 L60.871,79.018 L58.754,79.016 L58.754,60.129 L58.754,60.129 Z M55.754,72.078 L55.754,79.66 C55.754,80.959 56.811,82.015 58.111,82.015 L62.486,82.017 L66.81,75.46 L77.923,75.538 L72.193,95.294 L72.193,95.507 C72.193,96.96 73.375,98.142 74.828,98.142 L81.447,98.142 L93.385,76.003 L103.479,76.337 C105.514,76.337 107.348,75.515 108.651,74.206 C111.512,75.269 114.335,76.481 117.051,77.839 L118.393,75.155 C115.762,73.841 113.038,72.657 110.276,71.61 C110.505,70.942 110.63,70.233 110.63,69.495 C110.632,67.653 109.878,65.925 108.507,64.63 C107.161,63.359 105.378,62.657 103.435,62.657 L103.433,62.657 L93.308,62.993 L81.45,41.002 L74.825,41 C73.374,41.006 72.194,42.188 72.194,43.639 L72.194,43.852 L77.882,63.461 L66.736,63.557 L62.486,57.129 L58.112,57.129 C56.813,57.129 55.755,58.186 55.755,59.484 L55.755,68.961 C52.528,69.846 49.323,70.918 46.222,72.164 L47.339,74.947 C50.081,73.846 52.907,72.891 55.754,72.078 L55.754,72.078 Z M125.944,82.984 C128.788,84.869 131.548,86.951 134.143,89.17 L136.092,86.889 C133.403,84.59 130.545,82.436 127.6,80.485 L125.944,82.984 Z M143.745,94.269 L141.536,96.298 C143.841,98.806 146.02,101.486 148.015,104.263 L150.453,102.513 C148.388,99.639 146.13,96.865 143.745,94.269 L143.745,94.269 Z M12,96.725 L14.279,98.674 C16.5,96.076 18.898,93.592 21.41,91.287 L19.383,89.076 C16.782,91.463 14.299,94.035 12,96.725 L12,96.725 Z M38.065,79.338 L36.622,76.709 C33.528,78.406 30.505,80.313 27.632,82.373 L29.38,84.811 C32.155,82.82 35.077,80.978 38.065,79.338 L38.065,79.338 Z" id="Page-1" fill="#B0A3D7" mask="url(#mask-2)"></path>
                        </g>
                        <g id="number-in-circle">
                            <circle id="Oval" fill="#6A4FB8" fill-rule="evenodd" cx="20" cy="20" r="20"></circle>
                            <text id="1" font-family="Roboto-Medium, Roboto" font-size="18" font-weight="400" fill="#FFFFFF">
                                <tspan x="15.3847656" y="26">3</tspan>
                            </text>
                        </g>
                    </g>
                </g>
            </g>
        </g>
    </g>
</svg>