<?xml version="1.0" encoding="UTF-8" standalone="no"?>
<svg width="23px" height="8px" viewBox="0 0 23 8" version="1.1" xmlns="http://www.w3.org/2000/svg" xmlns:xlink="http://www.w3.org/1999/xlink">
    <!-- Generator: Sketch 44.1 (41455) - http://www.bohemiancoding.com/sketch -->
    <title>Fill 1</title>
    <desc>Created with Sketch.</desc>
    <defs></defs>
    <g id="Symbols" stroke="none" stroke-width="1" fill="none" fill-rule="evenodd">
        <g id="ticket/depdate" transform="translate(0.000000, -10.000000)" fill="#838383">
            <g id="Group-3">
                <path d="M0.622210526,14.4039322 L0,14.9834576 L1.65008187,16.9240678 L4.04140936,16.0749831 L0.622210526,14.4039322 Z M22.9422982,11.3242034 C22.7779357,10.7209492 21.2497135,10.6691525 20.6349006,10.875661 C18.398924,11.6253559 16.1626784,12.3751864 13.9261637,13.1251525 L6.16346199,10 L5.34433918,10.8802712 L8.66615789,14.9019661 C6.52487135,15.6482712 2.60316959,17.0261695 1.89138012,17.2645424 C1.2785848,17.4702373 5.8512807,18.124339 6.89959649,17.9487458 C6.89959649,17.9487458 14.9543041,15.3000678 18.515538,14.1056271 C19.4309649,13.7986441 20.3467953,13.4917966 21.2622222,13.184678 C21.8747485,12.9792542 23.1207836,11.9787119 22.9422982,11.3242034 L22.9422982,11.3242034 Z" id="Fill-1"></path>
            </g>
        </g>
    </g>
</svg>