<?xml version="1.0" encoding="UTF-8" standalone="no"?>
<svg width="20px" height="13px" viewBox="0 0 20 13" version="1.1" xmlns="http://www.w3.org/2000/svg" xmlns:xlink="http://www.w3.org/1999/xlink">
    <!-- Generator: Sketch 44.1 (41455) - http://www.bohemiancoding.com/sketch -->
    <title>Fill 1</title>
    <desc>Created with Sketch.</desc>
    <defs></defs>
    <g id="Symbols" stroke="none" stroke-width="1" fill="none" fill-rule="evenodd">
        <g id="tickets/retdate" transform="translate(-3.000000, -6.000000)" fill="#838383">
            <g id="Group-2" transform="translate(0.400000, 0.000000)">
                <path d="M1.24628047,13.0626533 L0.624069943,13.6421788 L2.27415181,15.5827889 L4.6654793,14.7337042 L1.24628047,13.0626533 Z M23.5663682,9.98292452 C23.4020056,9.37967029 21.8737834,9.32787368 21.2589705,9.53438215 C19.0229939,10.2840771 16.7867483,11.0339076 14.5502337,11.7838737 L6.78753193,8.65872113 L5.96840912,9.53899232 L9.29022784,13.5606872 C7.14894129,14.3069923 3.22723953,15.6848906 2.51545006,15.9232635 C1.90265474,16.1289584 6.47535065,16.7830601 7.52366643,16.6074669 C7.52366643,16.6074669 15.578374,13.9587889 19.139608,12.7643483 C20.0550349,12.4573652 20.9708653,12.1505177 21.8862922,11.8433991 C22.4988185,11.6379754 23.7448536,10.637433 23.5663682,9.98292452 L23.5663682,9.98292452 Z" id="Fill-1" transform="translate(12.103877, 12.647898) rotate(40.000000) translate(-12.103877, -12.647898) "></path>
            </g>
        </g>
    </g>
</svg>