<?xml version="1.0" encoding="UTF-8" standalone="no"?>
<svg width="169px" height="161px" viewBox="0 0 169 161" version="1.1" xmlns="http://www.w3.org/2000/svg" xmlns:xlink="http://www.w3.org/1999/xlink">
    <!-- Generator: Sketch 44.1 (41455) - http://www.bohemiancoding.com/sketch -->
    <title>Group</title>
    <desc>Created with Sketch.</desc>
    <defs>
        <circle id="path-1" cx="80.5" cy="80.5" r="80.5"></circle>
    </defs>
    <g id="Sales-page" stroke="none" stroke-width="1" fill="none" fill-rule="evenodd">
        <g id="Sales-Page" transform="translate(-142.000000, -1279.000000)">
            <g id="Stacked-Group" transform="translate(141.000000, 1279.000000)">
                <g id="Group-3">
                    <g id="Group" transform="translate(1.000000, 0.000000)">
                        <g id="Page-1" transform="translate(8.000000, 0.000000)">
                            <mask id="mask-2" fill="white">
                                <use xlink:href="#path-1"></use>
                            </mask>
                            <use id="Mask" fill="#F3F1F9" xlink:href="#path-1"></use>
                            <g mask="url(#mask-2)" fill="#B0A3D7">
                                <g transform="translate(35.000000, 26.000000)">
                                    <path d="M107.576155,106.236618 C105.892718,107.923863 103.682447,108.765824 101.473282,108.765824 C99.2663301,108.765824 97.057165,107.923863 95.3704078,106.236618 L71.1138641,81.9549118 C64.1255534,86.8338529 55.632,89.7031667 46.4677282,89.7031667 C22.6384078,89.7031667 3.32038835,70.363549 3.32038835,46.5127941 C3.32038835,22.6598235 22.6384078,3.32463725 46.4677282,3.32463725 C70.2970485,3.32463725 89.6183883,22.6598235 89.6183883,46.5127941 C89.6183883,54.9401569 87.1956117,62.7991961 83.0252039,69.4484706 L107.576155,94.0204314 C110.945243,97.3927059 110.945243,102.863235 107.576155,106.236618 M109.92367,91.6684804 L87.1911845,68.915598 C90.9587184,62.0635882 92.9387767,54.374049 92.9387767,46.5116863 C92.9387767,20.8651176 72.091165,0 46.4677282,0 C20.8453981,0 0,20.8651176 0,46.5116863 C0,72.1593627 20.8453981,93.0255882 46.4677282,93.0255882 C55.0752816,93.0255882 63.3884272,90.6780686 70.6733592,86.2123529 L93.0228932,108.585245 C95.2796505,110.844137 98.2801748,112.088245 101.473282,112.088245 C104.668602,112.088245 107.67134,110.844137 109.925883,108.584137 C112.180427,106.326353 113.423359,103.32299 113.423359,100.126863 C113.423359,96.9307353 112.180427,93.9284804 109.92367,91.6684804" id="Fill-1"></path>
                                    <path d="M70.5416505,50.8743725 L57.3707767,50.4356667 L44.1202136,75.0297843 L39.3665243,75.0297843 L46.614932,50.0180098 L28.1225825,49.8895 L23.3290485,57.1647059 L20.987068,57.1624902 L20.987068,36.2408725 L23.3301553,36.2397647 L28.044,43.3753824 L46.5651262,43.2147451 L39.3665243,18.3713627 L44.1213204,18.3735784 L57.282233,42.805951 L70.4896311,42.3650294 C71.7347767,42.3650294 72.8980194,42.8192451 73.769068,43.6434804 C74.6168738,44.4433431 75.0817282,45.5002255 75.0817282,46.6180392 C75.0806214,48.9633431 73.0186602,50.8732647 70.5416505,50.8743725 M70.4353981,39.0415 L70.4331845,39.0415 L59.2268738,39.4148431 L46.1024854,15.0511569 L38.771068,15.0489412 C37.1662136,15.0544804 35.8601942,16.3650588 35.8601942,17.9714314 L35.8601942,18.207402 L42.1545437,39.931098 L29.8170874,40.037451 L25.1143107,32.9162353 L20.2742913,32.9173431 C18.8354563,32.9173431 17.6655728,34.0883333 17.6655728,35.5263137 L17.6655728,57.8781569 C17.6655728,59.3161373 18.8343495,60.4860196 20.2731845,60.4860196 L25.1154175,60.4882353 L29.9000971,53.2252157 L42.2010291,53.3105196 L35.8601942,75.1981765 L35.8601942,75.4341471 C35.8601942,77.0438431 37.1684272,78.3544216 38.7766019,78.3544216 L46.1013786,78.3544216 L59.3154175,53.8267745 L70.4874175,54.1967941 C74.849301,54.1967941 78.4010097,50.7968235 78.4010097,46.6180392 C78.4010097,44.5762843 77.5664854,42.6619314 76.049068,41.2272745 C74.5593204,39.8192059 72.5859029,39.0415 70.4353981,39.0415" id="Fill-3"></path>
                                </g>
                            </g>
                        </g>
                        <g id="number-in-circle">
                            <circle id="Oval" fill="#6A4FB8" fill-rule="evenodd" cx="20" cy="20" r="20"></circle>
                            <text id="1" font-family="Roboto-Medium, Roboto" font-size="18" font-weight="400" fill="#FFFFFF">
                                <tspan x="15.3847656" y="26">1</tspan>
                            </text>
                        </g>
                    </g>
                </g>
            </g>
        </g>
    </g>
</svg>