<?xml version="1.0" encoding="UTF-8" standalone="no"?>
<svg width="12px" height="11px" viewBox="0 0 12 11" version="1.1" xmlns="http://www.w3.org/2000/svg" xmlns:xlink="http://www.w3.org/1999/xlink">
    <!-- Generator: Sketch 44.1 (41455) - http://www.bohemiancoding.com/sketch -->
    <title>Group 8</title>
    <desc>Created with Sketch.</desc>
    <defs></defs>
    <g id="Symbols" stroke="none" stroke-width="1" fill="none" fill-rule="evenodd">
        <g id="tickets/Baggage" fill="#838383">
            <g id="Page-1">
                <g id="Group-8" transform="translate(0.000000, 0.081481)">
                    <path d="M1.26593407,10.8641975 L1.96483516,10.8641975 L1.96483516,1.94197531 L1.23956044,1.94197531 C0.553846154,1.94197531 0,2.51234568 0,3.21851852 L0,9.57407407 C0.0131868132,10.2938272 0.58021978,10.8641975 1.26593407,10.8641975" id="Fill-2"></path>
                    <path d="M10.6549451,10.8641975 L9.95604396,10.8641975 L9.95604396,1.94197531 L10.6813187,1.94197531 C11.367033,1.94197531 11.9208791,2.51234568 11.9208791,3.21851852 L11.9208791,9.57407407 C11.9076923,10.2938272 11.3406593,10.8641975 10.6549451,10.8641975" id="Fill-4"></path>
                    <path d="M7.99120879,0.0543209877 L5.88131868,0.0543209877 L3.77142857,0.0543209877 C3.46813187,0.0543209877 3.23076923,0.312345679 3.23076923,0.611111111 L3.23076923,1.94197531 L4.11428571,1.94197531 L4.11428571,0.950617284 L5.89450549,0.950617284 L7.67472527,0.950617284 L7.67472527,1.94197531 L8.55824176,1.94197531 L8.55824176,0.611111111 C8.53186813,0.298765432 8.29450549,0.0543209877 7.99120879,0.0543209877" id="Fill-6"></path>
                </g>
            </g>
        </g>
    </g>
</svg>