<?xml version="1.0" encoding="UTF-8" standalone="no"?>
<svg width="10px" height="10px" viewBox="0 0 10 10" version="1.1" xmlns="http://www.w3.org/2000/svg" xmlns:xlink="http://www.w3.org/1999/xlink">
    <!-- Generator: Sketch 44.1 (41455) - http://www.bohemiancoding.com/sketch -->
    <title>Fill 1</title>
    <desc>Created with Sketch.</desc>
    <defs></defs>
    <g id="Symbols" stroke="none" stroke-width="1" fill="none" fill-rule="evenodd">
        <g id="login" transform="translate(-7.000000, -7.000000)" fill="#BCBCBC">
            <path d="M8.50985985,15.3914197 L8.51078945,15.3410045 C8.51342333,15.2030463 8.51729668,14.9944808 8.51993056,14.9632155 C8.73002115,13.3426311 10.7096137,13.0023604 12.3333226,13.0023604 L12.4013387,13.0035329 L12.4552557,13.0023604 C14.0788098,13.0023604 16.0585572,13.3425008 16.2683379,14.9582651 C16.2715916,14.9964349 16.2762396,15.237829 16.2788735,15.3823007 C15.177912,16.0547651 13.838662,16.4062391 12.3943667,16.4062391 C10.9121125,16.4062391 9.60679301,16.0642749 8.50985985,15.3914197 Z M12.4551008,12.4812722 C12.4388327,12.4812722 12.4224097,12.481663 12.4061416,12.4821841 C12.3661687,12.481663 12.3500555,12.4812722 12.3333226,12.4812722 C9.67961202,12.4812722 8.10656648,13.3426311 7.9037578,14.9065471 C7.89910977,14.9431536 7.89647589,15.040076 7.8910532,15.3327973 L7.88733479,15.5168717 C7.88717985,15.5232551 7.88872919,15.5292476 7.88919399,15.5356309 C7.88981373,15.5443591 7.8901236,15.5533479 7.89182787,15.5620761 C7.89353215,15.5709346 7.89616603,15.5794023 7.89895484,15.58787 C7.90143378,15.5956863 7.90360286,15.6032421 7.90685648,15.6109282 C7.91041996,15.6191353 7.91506798,15.6270819 7.919716,15.6351588 C7.92389922,15.642454 7.92792751,15.649619 7.93304033,15.6566537 C7.93830809,15.6642094 7.94466039,15.6709836 7.95101268,15.6780183 C7.95674524,15.6845319 7.96232287,15.6910455 7.9688301,15.697038 C7.9765768,15.7040727 7.98509818,15.7103257 7.99361955,15.7165788 C7.99873238,15.7203567 8.00307053,15.7247859 8.00864816,15.7284336 C9.24997986,16.5260894 10.7213886,16.9273273 12.393592,16.9273273 C14.0298506,16.9273273 15.5458804,16.5130622 16.7783809,15.729606 C16.7845782,15.7256978 16.7892263,15.7210081 16.7948039,15.7167091 C16.8030154,15.7105863 16.8112269,15.704724 16.8186637,15.6979499 C16.8256358,15.6915666 16.8313683,15.6847924 16.8374108,15.6781485 C16.8434532,15.6715047 16.8496505,15.6648608 16.8549183,15.6576958 C16.8600311,15.6504006 16.8643693,15.6429751 16.8687074,15.6354193 C16.8732005,15.627603 16.8778485,15.6201775 16.8812571,15.6121006 C16.8846656,15.604154 16.8869897,15.5963377 16.8896235,15.5882608 C16.8922574,15.5800537 16.8950462,15.5718465 16.8967505,15.5632486 C16.8984548,15.5541295 16.8989196,15.5448802 16.8995393,15.5356309 C16.8998492,15.5293779 16.9015535,15.5235156 16.9013985,15.5171323 L16.8984548,15.373833 C16.8925673,15.0574022 16.8897785,14.945759 16.8849755,14.9066774 C16.681857,13.3426311 15.1086565,12.4812722 12.4551008,12.4812722 Z M14.2387017,9.55575255 C14.2387017,10.6411793 13.4113538,11.5241634 12.3943667,11.5241634 C11.3775344,11.5241634 10.5503414,10.6411793 10.5503414,9.55575255 C10.5503414,8.54484136 11.2913911,7.86560284 12.3943667,7.86560284 C13.4974972,7.86560284 14.2387017,8.54484136 14.2387017,9.55575255 Z M14.858438,9.55575255 C14.858438,8.25381358 13.8451692,7.3445146 12.3943667,7.3445146 C10.943719,7.3445146 9.9306052,8.25368331 9.9306052,9.55575255 C9.9306052,10.9284292 11.0357499,12.0452516 12.3943667,12.0452516 C13.7531384,12.0452516 14.858438,10.9284292 14.858438,9.55575255 Z" id="Fill-1"></path>
        </g>
    </g>
</svg>